<svg width="54" height="54" viewBox="0 0 54 54" fill="none" xmlns="http://www.w3.org/2000/svg">
<rect width="54" height="54" rx="27" fill="#C8A05C" fill-opacity="0.3"/>
<path d="M14.6092 24.7274C14.3105 25.0258 14.0735 25.3801 13.9119 25.7701C13.7502 26.1601 13.667 26.5781 13.667 27.0003C13.667 27.4225 13.7502 27.8406 13.9119 28.2306C14.0735 28.6206 14.3105 28.9749 14.6092 29.2733L24.7274 39.3915C25.0258 39.6902 25.3801 39.9271 25.7701 40.0888C26.1601 40.2504 26.5781 40.3337 27.0003 40.3337C27.4225 40.3337 27.8406 40.2504 28.2306 40.0888C28.6206 39.9271 28.9749 39.6902 29.2733 39.3915L39.3915 29.2733C39.6902 28.9749 39.9271 28.6206 40.0888 28.2306C40.2504 27.8406 40.3337 27.4225 40.3337 27.0003C40.3337 26.5781 40.2504 26.1601 40.0888 25.7701C39.9271 25.3801 39.6902 25.0258 39.3915 24.7274L29.2733 14.6092C28.9749 14.3105 28.6206 14.0735 28.2306 13.9119C27.8406 13.7502 27.4225 13.667 27.0003 13.667C26.5781 13.667 26.1601 13.7502 25.7701 13.9119C25.3801 14.0735 25.0258 14.3105 24.7274 14.6092L14.6092 24.7274Z" stroke="#C8A05C" stroke-width="1.5" stroke-linecap="round" stroke-linejoin="round"/>
<path d="M23 21H31M23 24.7037H31M28.6667 34.3333L23 28.4074H25C29.4447 28.4074 29.4447 21 25 21" stroke="#C8A05C" stroke-width="1.5" stroke-linecap="round" stroke-linejoin="round"/>
</svg>
