<svg width="40" height="40" viewBox="0 0 40 40" fill="none" xmlns="http://www.w3.org/2000/svg">
<rect width="40" height="40" rx="20" fill="#C8A05C" fill-opacity="0.3"/>
<path d="M30 21V14C30 13.4696 29.7893 12.9609 29.4142 12.5858C29.0391 12.2107 28.5304 12 28 12H12C11.4696 12 10.9609 12.2107 10.5858 12.5858C10.2107 12.9609 10 13.4696 10 14V26C10 27.1 10.9 28 12 28H20" stroke="#C8A05C" stroke-width="2" stroke-linecap="round" stroke-linejoin="round"/>
<path d="M30 15L21.03 20.7C20.7213 20.8934 20.3643 20.996 20 20.996C19.6357 20.996 19.2787 20.8934 18.97 20.7L10 15" stroke="#C8A05C" stroke-width="2" stroke-linecap="round" stroke-linejoin="round"/>
<path d="M24 27L26 29L30 25" stroke="#C8A05C" stroke-width="2" stroke-linecap="round" stroke-linejoin="round"/>
</svg>
