<svg width="54" height="54" viewBox="0 0 54 54" fill="none" xmlns="http://www.w3.org/2000/svg">
<rect width="54" height="54" rx="27" fill="#C8A05C" fill-opacity="0.3"/>
<path d="M15.667 23H38.3337M31.0003 29.6667L27.0003 33.6667L23.0003 29.6667" stroke="#C8A05C" stroke-width="1.5" stroke-linecap="round" stroke-linejoin="round"/>
<path d="M15 23.5333C15 20.5464 15 19.0529 15.5813 17.9121C16.0926 16.9085 16.9085 16.0926 17.9121 15.5813C19.0529 15 20.5464 15 23.5333 15H30.4667C33.4536 15 34.9471 15 36.0879 15.5813C37.0915 16.0926 37.9074 16.9085 38.4187 17.9121C39 19.0529 39 20.5464 39 23.5333V30.4667C39 33.4536 39 34.9471 38.4187 36.0879C37.9074 37.0915 37.0915 37.9074 36.0879 38.4187C34.9471 39 33.4536 39 30.4667 39H23.5333C20.5464 39 19.0529 39 17.9121 38.4187C16.9085 37.9074 16.0926 37.0915 15.5813 36.0879C15 34.9471 15 33.4536 15 30.4667V23.5333Z" stroke="#C8A05C" stroke-width="1.5" stroke-linecap="round" stroke-linejoin="round"/>
</svg>
