<svg width="574" height="507" viewBox="0 0 574 507" fill="none" xmlns="http://www.w3.org/2000/svg">
<path d="M31.5283 293.864C19.1883 285.079 11.2297 275.486 8.78492 265.472H556.95C557.011 265.655 557.088 265.91 557.161 266.23C557.326 266.952 557.475 268 557.402 269.284C557.256 271.84 556.225 275.377 552.592 279.176C545.291 286.808 527.462 295.512 485.238 299.213C450.397 302.262 419.337 309.667 387.273 317.311C380.411 318.947 373.504 320.594 366.503 322.211C326.78 331.389 284.013 339.637 229.538 339.637C175.053 339.637 122.037 331.279 81.5151 317.708C61.2529 310.922 44.1375 302.84 31.5283 293.864Z" fill="#EAF0FD" stroke="#16166C" stroke-width="1.12388"/>
<path d="M477.189 85.1347C477.277 84.9411 477.386 84.7162 477.519 84.4689C477.968 83.6274 478.681 82.5359 479.731 81.5279C481.807 79.535 485.253 77.8153 490.785 79.1182L491.276 79.234L491.444 78.7579C493.748 72.214 500.724 69.7088 507.659 70.4453C514.61 71.1836 521.125 75.14 522.475 81.0675L522.757 82.3056L523.484 81.2642C526.146 77.4493 530.302 77.269 533.301 78.7045C534.806 79.4249 535.96 80.528 536.477 81.714C536.953 82.8054 536.907 83.9955 536.04 85.1347H477.189Z" fill="#EAF0FD" stroke="#16166C" stroke-width="1.12388"/>
<path d="M92.9197 22.7123H32.9609C32.9609 22.7123 36.0628 12.8896 47.5151 15.5869C52.3703 1.79693 76.7696 5.42705 79.6243 17.9583C85.3336 9.77645 97.5389 17.239 92.9197 22.701V22.7123Z" stroke="#16166C" stroke-width="1.12388" stroke-miterlimit="10"/>
<path d="M268.943 172.591C269.698 174.327 269.606 176.234 268.196 178.034H180.191C180.343 177.672 180.562 177.195 180.856 176.644C181.534 175.377 182.609 173.731 184.195 172.209C187.343 169.189 192.556 166.607 200.869 168.567L201.361 168.683L201.528 168.207C205.012 158.314 215.54 154.575 225.906 155.677C236.288 156.781 246.112 162.701 248.159 171.674L248.441 172.912L249.168 171.871C253.218 166.067 259.549 165.799 264.094 167.978C266.373 169.07 268.143 170.752 268.943 172.591Z" fill="#EAF0FD" stroke="#16166C" stroke-width="1.12388"/>
<path d="M388.667 70.6341H480.039C480.039 70.6341 472.958 55.5629 452.695 63.0929C434.443 39.4802 410.325 54.956 410.325 65.8014C397.76 56.5519 388.656 70.6228 388.656 70.6228L388.667 70.6341Z" stroke="#16166C" stroke-width="1.12388" stroke-miterlimit="10"/>
<path d="M213.785 66.6425L214.173 66.7867L214.425 66.4596C219.605 59.7614 225.538 58.6719 230.139 59.9301C232.459 60.5647 234.457 61.8003 235.868 63.2449C237.289 64.6998 238.066 66.3115 238.066 67.6893V68.8014L238.961 68.1417C240.701 66.8591 242.286 66.409 243.676 66.4191C245.072 66.4293 246.32 66.9048 247.378 67.5542C248.437 68.2046 249.287 69.0193 249.876 69.6775C249.956 69.7674 250.031 69.8543 250.101 69.9371H199.067C199.151 69.8135 199.247 69.6793 199.355 69.5371C199.896 68.822 200.735 67.9123 201.921 67.1335C204.267 65.5935 208.054 64.5097 213.785 66.6425Z" fill="#EAF0FD" stroke="#16166C" stroke-width="1.12388"/>
<path d="M572.152 12.5869H518.992C518.992 12.5869 523.117 3.82064 534.895 8.20376C545.516 -5.53001 559.542 3.47224 559.542 9.77719C566.847 4.39382 572.152 12.5869 572.152 12.5869Z" stroke="#16166C" stroke-width="1.12388" stroke-miterlimit="10"/>
<path d="M126.984 235.023V264.907" stroke="#16166C" stroke-width="0.561938" stroke-linecap="round" stroke-linejoin="round"/>
<path d="M126.986 192.475C126.986 192.475 156.555 252.804 126.986 252.804C97.4164 252.804 126.986 192.475 126.986 192.475Z" fill="white" stroke="#16166C" stroke-width="0.561938" stroke-linecap="round" stroke-linejoin="round"/>
<path d="M87.0625 235.023V264.907" stroke="#16166C" stroke-width="0.561938" stroke-linecap="round" stroke-linejoin="round"/>
<path d="M87.0637 192.475C87.0637 192.475 116.633 252.804 87.0637 252.804C57.4945 252.804 87.0637 192.475 87.0637 192.475Z" fill="white" stroke="#16166C" stroke-width="0.561938" stroke-linecap="round" stroke-linejoin="round"/>
<path d="M166.898 235.023V264.907" stroke="#16166C" stroke-width="0.561938" stroke-linecap="round" stroke-linejoin="round"/>
<path d="M166.9 192.475C166.9 192.475 196.469 252.804 166.9 252.804C137.33 252.804 166.9 192.475 166.9 192.475Z" fill="white" stroke="#16166C" stroke-width="0.561938" stroke-linecap="round" stroke-linejoin="round"/>
<path d="M206.844 235.023V264.907" stroke="#16166C" stroke-width="0.561938" stroke-linecap="round" stroke-linejoin="round"/>
<path d="M206.845 192.475C206.845 192.475 236.414 252.804 206.845 252.804C177.276 252.804 206.845 192.475 206.845 192.475Z" fill="white" stroke="#16166C" stroke-width="0.561938" stroke-linecap="round" stroke-linejoin="round"/>
<path d="M492.492 235.023V264.907" stroke="#16166C" stroke-width="0.561938" stroke-linecap="round" stroke-linejoin="round"/>
<path d="M492.493 192.475C492.493 192.475 522.063 252.804 492.493 252.804C462.924 252.804 492.493 192.475 492.493 192.475Z" fill="white" stroke="#16166C" stroke-width="0.561938" stroke-linecap="round" stroke-linejoin="round"/>
<path d="M532.422 235.023V264.907" stroke="#16166C" stroke-width="0.561938" stroke-linecap="round" stroke-linejoin="round"/>
<path d="M532.423 192.475C532.423 192.475 561.992 252.804 532.423 252.804C502.854 252.804 532.423 192.475 532.423 192.475Z" fill="white" stroke="#16166C" stroke-width="0.561938" stroke-linecap="round" stroke-linejoin="round"/>
<path d="M565.554 264.822L1 264.822" stroke="#16166C" stroke-width="0.561938" stroke-linecap="round" stroke-linejoin="round"/>
<path d="M411.847 215.008H309.586V273.326H411.847V215.008Z" fill="white" stroke="#16166C" stroke-width="0.561938" stroke-linecap="round" stroke-linejoin="round"/>
<path d="M500.356 126.401L425.281 81.4688V193.8L500.356 216.581V126.401Z" fill="white" stroke="#16166C" stroke-width="0.561938" stroke-linecap="round" stroke-linejoin="round"/>
<path d="M478.659 216.266V273.325L415.328 275.742V202.51L478.659 216.266Z" fill="white" stroke="#16166C" stroke-width="0.561938" stroke-linecap="round" stroke-linejoin="round"/>
<path d="M461.562 264.211V225.943L434.117 221.717V264.211H461.562Z" fill="#EAF0FD" stroke="#16166C" stroke-width="0.561938" stroke-linecap="round" stroke-linejoin="round"/>
<path d="M408.383 220.03V275.74H415.317V218.67L408.383 220.03Z" fill="white" stroke="#16166C" stroke-width="0.561938" stroke-linecap="round" stroke-linejoin="round"/>
<path d="M408.391 230.135H360.75V273.325H408.391V230.135Z" fill="white" stroke="#16166C" stroke-width="0.561938" stroke-linecap="round" stroke-linejoin="round"/>
<path d="M405.576 232.494H385.672V270.537H405.576V232.494Z" fill="#EAF0FD" stroke="#16166C" stroke-width="0.561938" stroke-linecap="round" stroke-linejoin="round"/>
<path d="M383.459 232.494H363.555V270.537H383.459V232.494Z" fill="#EAF0FD" stroke="#16166C" stroke-width="0.561938" stroke-linecap="round" stroke-linejoin="round"/>
<path d="M474.816 120.003V145.808L462.812 140.447V113.361L474.816 120.003Z" fill="#EAF0FD" stroke="#16166C" stroke-width="0.561938" stroke-linecap="round" stroke-linejoin="round"/>
<path d="M496.797 132.694V156.048L485.828 151.148V126.625L496.797 132.694Z" fill="#EAF0FD" stroke="#16166C" stroke-width="0.561938" stroke-linecap="round" stroke-linejoin="round"/>
<path d="M433.18 96.9648L449.498 106.001V134.502L433.18 127.208V96.9648Z" fill="#EAF0FD" stroke="#16166C" stroke-width="0.561938" stroke-linecap="round" stroke-linejoin="round"/>
<path d="M474.816 173.537V199.341L462.812 195.498V168.412L474.816 173.537Z" fill="#EAF0FD" stroke="#16166C" stroke-width="0.561938" stroke-linecap="round" stroke-linejoin="round"/>
<path d="M496.797 183.333V206.687L485.828 203.169V178.646L496.797 183.333Z" fill="#EAF0FD" stroke="#16166C" stroke-width="0.561938" stroke-linecap="round" stroke-linejoin="round"/>
<path d="M433.18 155.756L449.498 162.724V191.237L433.18 186.011V155.756Z" fill="#EAF0FD" stroke="#16166C" stroke-width="0.561938" stroke-linecap="round" stroke-linejoin="round"/>
<path d="M425.264 81.4688H296.164V193.8H425.264V81.4688Z" fill="white" stroke="#16166C" stroke-width="0.561938" stroke-linecap="round" stroke-linejoin="round"/>
<path d="M221.094 126.401L296.169 81.4688V193.8L221.094 216.581V126.401Z" fill="white" stroke="#16166C" stroke-width="0.561938" stroke-linecap="round" stroke-linejoin="round"/>
<path d="M242.797 216.266V273.325L306.127 275.742V202.51L242.797 216.266Z" fill="white" stroke="#16166C" stroke-width="0.561938" stroke-linecap="round" stroke-linejoin="round"/>
<path d="M296.169 193.799H425.28L500.355 216.58L478.653 216.265L416.232 205.566H369.221H360.747H305.216L242.796 216.265L221.094 216.58L296.169 193.799Z" fill="white" stroke="#16166C" stroke-width="0.561938" stroke-linecap="round" stroke-linejoin="round"/>
<path d="M259.078 264.211V225.943L286.512 221.717V264.211H259.078Z" fill="#EAF0FD" stroke="#16166C" stroke-width="0.561938" stroke-linecap="round" stroke-linejoin="round"/>
<path d="M313.059 220.03V275.74H306.125V218.67L313.059 220.03Z" fill="white" stroke="#16166C" stroke-width="0.561938" stroke-linecap="round" stroke-linejoin="round"/>
<path d="M360.696 230.135H313.055V273.325H360.696V230.135Z" fill="white" stroke="#16166C" stroke-width="0.561938" stroke-linecap="round" stroke-linejoin="round"/>
<path d="M335.771 232.494H315.867V270.537H335.771V232.494Z" fill="#EAF0FD" stroke="#16166C" stroke-width="0.561938" stroke-linecap="round" stroke-linejoin="round"/>
<path d="M357.888 232.494H337.984V270.537H357.888V232.494Z" fill="#EAF0FD" stroke="#16166C" stroke-width="0.561938" stroke-linecap="round" stroke-linejoin="round"/>
<path d="M246.641 120.003V145.808L258.644 140.447V113.361L246.641 120.003Z" fill="#EAF0FD" stroke="#16166C" stroke-width="0.561938" stroke-linecap="round" stroke-linejoin="round"/>
<path d="M224.672 132.694V156.048L235.641 151.148V126.625L224.672 132.694Z" fill="#EAF0FD" stroke="#16166C" stroke-width="0.561938" stroke-linecap="round" stroke-linejoin="round"/>
<path d="M288.28 96.9648L271.961 106.001V134.502L288.28 127.208V96.9648Z" fill="#EAF0FD" stroke="#16166C" stroke-width="0.561938" stroke-linecap="round" stroke-linejoin="round"/>
<path d="M246.641 173.537V199.341L258.644 195.498V168.412L246.641 173.537Z" fill="#EAF0FD" stroke="#16166C" stroke-width="0.561938" stroke-linecap="round" stroke-linejoin="round"/>
<path d="M224.672 183.333V206.687L235.641 203.169V178.646L224.672 183.333Z" fill="#EAF0FD" stroke="#16166C" stroke-width="0.561938" stroke-linecap="round" stroke-linejoin="round"/>
<path d="M288.28 155.756L271.961 162.724V191.237L288.28 186.011V155.756Z" fill="#EAF0FD" stroke="#16166C" stroke-width="0.561938" stroke-linecap="round" stroke-linejoin="round"/>
<path d="M416.796 92.2129H387.148V121.861H416.796V92.2129Z" fill="#EAF0FD" stroke="#16166C" stroke-width="0.561938" stroke-linecap="round" stroke-linejoin="round"/>
<path d="M334.351 92.2129H304.703V121.861H334.351V92.2129Z" fill="#EAF0FD" stroke="#16166C" stroke-width="0.561938" stroke-linecap="round" stroke-linejoin="round"/>
<path d="M375.57 92.2129H345.922V121.861H375.57V92.2129Z" fill="#EAF0FD" stroke="#16166C" stroke-width="0.561938" stroke-linecap="round" stroke-linejoin="round"/>
<path d="M416.796 152.791H387.148V182.439H416.796V152.791Z" fill="#EAF0FD" stroke="#16166C" stroke-width="0.561938" stroke-linecap="round" stroke-linejoin="round"/>
<path d="M334.351 152.791H304.703V182.439H334.351V152.791Z" fill="#EAF0FD" stroke="#16166C" stroke-width="0.561938" stroke-linecap="round" stroke-linejoin="round"/>
<path d="M375.57 152.791H345.922V182.439H375.57V152.791Z" fill="#EAF0FD" stroke="#16166C" stroke-width="0.561938" stroke-linecap="round" stroke-linejoin="round"/>
<path d="M360.742 198.463H363.552H422.252V218.67L415.318 221.39H306.122L299.188 218.67V198.463H360.742Z" fill="#EAF0FD" stroke="#16166C" stroke-width="0.561938" stroke-linecap="round" stroke-linejoin="round"/>
<path d="M422.252 218.67H299.188L306.122 221.39H415.318L422.252 218.67Z" fill="white" stroke="#16166C" stroke-width="0.561938" stroke-linecap="round" stroke-linejoin="round"/>
<path d="M341.547 33.9424C341.547 55.1499 360.731 75.0313 360.731 75.0313C360.731 75.0313 379.916 55.1387 379.916 33.9424C379.916 23.3442 371.33 14.7578 360.731 14.7578C350.133 14.7578 341.547 23.3442 341.547 33.9424ZM347.942 33.9424C347.942 26.8732 353.673 21.1527 360.731 21.1527C367.789 21.1527 373.521 26.8844 373.521 33.9424C373.521 41.0003 367.789 46.7321 360.731 46.7321C353.673 46.7321 347.942 41.0003 347.942 33.9424Z" fill="#A4110E"/>
<path d="M299.655 42.4726H360.232C364.941 42.4726 368.762 38.6514 368.762 33.9423C368.762 29.2333 364.941 25.4121 360.232 25.4121H299.655C294.946 25.4121 291.125 29.2333 291.125 33.9423C291.125 38.6514 294.946 42.4726 299.655 42.4726Z" fill="white"/>
<path d="M357.886 29.4043L356.526 32.169L353.469 32.6186L355.683 34.7652L355.155 37.8109L357.886 36.3723L360.617 37.8109L360.1 34.7652L362.314 32.6186L359.257 32.169L357.886 29.4043Z" fill="#C8A05C"/>
<path d="M343.917 29.4043L342.557 32.169L339.5 32.6186L341.714 34.7652L341.186 37.8109L343.917 36.3723L346.648 37.8109L346.131 34.7652L348.345 32.6186L345.288 32.169L343.917 29.4043Z" fill="#C8A05C"/>
<path d="M315.991 29.4043L314.619 32.169L311.562 32.6186L313.777 34.7652L313.26 37.8109L315.991 36.3723L318.722 37.8109L318.193 34.7652L320.407 32.6186L317.35 32.169L315.991 29.4043Z" fill="#C8A05C"/>
<path d="M329.959 29.4043L328.588 32.169L325.531 32.6186L327.745 34.7652L327.217 37.8109L329.959 36.3723L332.69 37.8109L332.162 34.7652L334.376 32.6186L331.319 32.169L329.959 29.4043Z" fill="#C8A05C"/>
<path d="M302.018 29.4043L300.647 32.169L297.602 32.6186L299.804 34.7652L299.287 37.8109L302.018 36.3723L304.749 37.8109L304.221 34.7652L306.435 32.6186L303.378 32.169L302.018 29.4043Z" fill="#C8A05C"/>
<path d="M162.231 112.849L162.536 112.956L162.782 112.746C166.144 109.879 170.192 108.875 173.347 109.607C174.918 109.971 176.263 110.762 177.216 111.963C178.082 113.054 178.649 114.513 178.744 116.364H148.639C148.687 116.183 148.752 115.97 148.84 115.736C149.118 114.992 149.617 114.057 150.497 113.26C152.215 111.704 155.588 110.516 162.231 112.849Z" fill="#EAF0FD" stroke="#16166C" stroke-width="1.12388"/>
<path d="M524.098 162.683L524.403 162.79L524.649 162.58C528.011 159.713 532.056 158.709 535.208 159.441C536.778 159.805 538.121 160.596 539.074 161.797C539.939 162.888 540.505 164.347 540.6 166.198H510.506C510.554 166.017 510.619 165.804 510.707 165.57C510.986 164.826 511.484 163.891 512.364 163.094C514.083 161.538 517.455 160.35 524.098 162.683Z" fill="#EAF0FD" stroke="#16166C" stroke-width="1.12388"/>
<g clip-path="url(#clip0_1320_7464)">
<path d="M357.65 243.61C357.09 244.39 307.3 248.98 304.89 248.41C304.77 248.38 304.66 248.34 304.55 248.29C301.55 247.05 287.36 235.2 286.28 234.2C283.64 231.73 293.21 213.07 296.39 209.91C298.5 207.8 302.56 206.83 302.56 206.83C302.56 206.83 312.56 172.93 319.34 165.61C321.04 163.78 351.95 161.61 357.6 163.89C360.02 164.89 366.06 170.47 366.26 171.52C366.48 173.06 358.17 242.82 357.65 243.61Z" fill="#455A64"/>
<path d="M357.65 243.61C357.09 244.39 307.3 248.98 304.89 248.41C304.77 248.38 304.66 248.34 304.55 248.29C308.72 235.14 328.34 173.41 328.96 172.99C329.58 172.57 359.16 171.35 366.26 171.53C366.48 173.06 358.17 242.82 357.65 243.61Z" fill="#37474F"/>
<path d="M308.68 495.63C306.27 494.8 251.61 452.7 250.55 449.78C250.13 448.68 255.8 440.35 262.94 430.5C263.01 430.39 263.09 430.29 263.16 430.19C264.63 428.19 290.93 394.19 290.93 394.19L326.88 422.61L298.73 456.92L298.26 457.51C298.26 457.51 311.97 482.98 312.8 486.32C313.63 489.66 311.08 496.46 308.68 495.63Z" fill="#FFC4C0"/>
<path d="M250.56 449.78C251.61 452.71 306.27 494.78 308.68 495.63C311.09 496.48 313.62 489.63 312.8 486.35C311.98 483.07 298.26 457.53 298.26 457.53L298.73 456.95L302.17 453.24L266.9 425.24C265.72 426.61 263.34 429.88 263.12 430.18C263.04 430.28 262.97 430.39 262.89 430.48C255.8 440.36 250.17 448.68 250.56 449.78Z" fill="#EBEBEB"/>
<path d="M308.71 495.89C306.29 495.04 251.41 452.31 250.35 449.36C249.94 448.24 255.69 439.89 262.94 429.99L298.4 457.43C298.4 457.43 312.1 483.19 312.92 486.56C313.74 489.93 311.17 496.75 308.71 495.89Z" fill="#C8A05C"/>
<path d="M309.63 493.09C300.63 485.7 263.51 456.75 254.03 450.09C253.95 450.04 253.91 450.09 253.98 450.15C262.77 457.67 300.1 486.31 309.52 493.2C309.71 493.38 309.82 493.24 309.63 493.09Z" fill="#263238"/>
<path d="M310.92 481.83C308.89 480.18 306.26 479.46 303.67 479.83C301.36 480.14 299.25 481.33 297.79 483.15C297.79 483.2 297.85 483.28 297.9 483.23C301.45 479.99 306.72 479.48 310.83 481.99C310.91 482 311 481.89 310.92 481.83Z" fill="#263238"/>
<path d="M301.26 461.13C297.61 458.21 292.33 456.19 287.7 457.42C287.52 457.42 287.59 457.72 287.7 457.75C292.24 458.57 296.67 459.87 300.93 461.63C301.07 461.72 301.25 461.68 301.35 461.55C301.44 461.41 301.4 461.23 301.26 461.13Z" fill="#263238"/>
<path d="M303.24 464.45C299.59 461.53 294.31 459.51 289.68 460.74C289.5 460.74 289.57 461.04 289.68 461.07C294.22 461.89 298.65 463.19 302.91 464.95C303.05 465.04 303.23 465 303.33 464.87C303.42 464.73 303.38 464.55 303.24 464.45Z" fill="#263238"/>
<path d="M305.22 467.77C301.57 464.85 296.29 462.83 291.66 464.06C291.48 464.11 291.55 464.36 291.66 464.39C296.21 465.19 300.66 466.48 304.93 468.24C305.09 468.28 305.24 468.18 305.28 468.03C305.3 467.94 305.28 467.84 305.22 467.77Z" fill="#263238"/>
<path d="M307.17 471.09C303.52 468.17 298.24 466.15 293.61 467.38C293.43 467.43 293.5 467.68 293.61 467.71C298.15 468.53 302.58 469.83 306.84 471.59C306.98 471.68 307.16 471.64 307.26 471.51C307.35 471.37 307.31 471.19 307.17 471.09Z" fill="#263238"/>
<path d="M263.17 443.24C259.03 440.03 254.04 446.46 258.17 449.67C262.3 452.88 267.32 446.43 263.17 443.24Z" fill="white"/>
<path d="M312.89 454.4C312.23 451.4 308.7 451.09 306.3 451.8C302.21 453.09 298.53 455.44 295.63 458.61C295.58 458.65 295.57 458.73 295.61 458.78C295.61 458.78 295.62 458.8 295.63 458.8C295.49 459.08 295.6 459.41 295.87 459.55C295.93 459.58 295.99 459.6 296.06 459.61C300.06 459.84 304.38 460.61 308.36 459.61C310.72 458.97 313.51 457.24 312.89 454.4ZM302.28 458.71C300.28 458.64 298.28 458.48 296.28 458.49C298.32 457.11 300.43 455.82 302.6 454.65C303.66 454.1 304.76 453.62 305.88 453.22C307.63 452.62 313.64 452.36 310.88 456.65C309.42 459.02 304.64 458.78 302.28 458.71Z" fill="#263238"/>
<path d="M285.41 452.85C288.24 455.85 292.26 457.5 295.79 459.46C296.07 459.59 296.4 459.46 296.53 459.18C296.56 459.12 296.57 459.07 296.58 459.01C296.66 459.01 296.73 459.01 296.72 458.86C295.96 454.63 294.1 450.68 291.33 447.4C289.69 445.51 286.54 443.9 284.38 446.08C282.22 448.26 283.77 451.1 285.41 452.85ZM284.82 449.02C284.82 443.92 289.73 447.36 290.89 448.8C291.62 449.75 292.29 450.76 292.89 451.8C294.1 453.95 295.2 456.17 296.18 458.43C294.51 457.36 292.76 456.43 291.04 455.43C289 454.24 284.84 451.83 284.82 449.02Z" fill="#263238"/>
<path d="M273.93 415.38L309.08 444.64C309.08 444.64 365.38 378.24 367.44 368.24C369.79 356.9 376.31 268.06 376.16 263.63C375.98 258.26 370.07 234.63 370.07 234.63H327.89C327.89 234.63 321.99 350.81 320.76 354.41C319.44 358.3 273.93 415.38 273.93 415.38Z" fill="#37474F"/>
<path d="M270.21 420.94L275.15 411.62L311.68 443.65L304.5 449.95L270.21 420.94Z" fill="#455A64"/>
<path d="M312.4 435.83C306.97 430.58 285.76 413.74 283.12 412.36C283.06 412.36 282.98 412.43 283.03 412.48C284.94 414.76 303.03 429.57 312.26 436C312.36 436.07 312.49 435.91 312.4 435.83Z" fill="#263238"/>
<path d="M372.17 252.12C371.61 251.95 371.04 251.82 370.46 251.72C369.85 251.55 369.25 251.32 368.68 251.04C367.49 250.44 366.39 249.66 365.43 248.74C364.35 247.58 363.5 246.22 362.93 244.74C362.56 243.89 360.84 239.37 360.82 239.33C360.8 239.29 360.65 239.33 360.67 239.4C360.79 240.03 361.97 243.94 362.32 244.91C362.85 246.63 363.73 248.22 364.92 249.58C365.94 250.63 367.16 251.45 368.52 252C369.14 252.26 369.79 252.44 370.46 252.52C371.04 252.66 371.66 252.62 372.22 252.42C372.29 252.35 372.22 252.15 372.17 252.12Z" fill="#263238"/>
<path d="M334.85 236.71L333.96 260.04L332.96 283.37L330.72 330.02C330.3 337.79 329.88 345.56 329.39 353.33C329.39 354.33 329.26 355.33 329.16 356.33C329.16 356.48 329.13 356.64 329.07 356.78C329.01 356.91 328.95 357.03 328.88 357.15C328.76 357.38 328.62 357.59 328.49 357.8C328.22 358.22 327.94 358.62 327.66 359.02C326.53 360.62 325.36 362.18 324.18 363.73C321.82 366.83 319.4 369.88 316.98 372.93C312.13 379.02 307.24 385.08 302.32 391.11L287.44 409.11L301.95 390.81C306.78 384.71 311.62 378.61 316.39 372.47C318.78 369.4 321.15 366.32 323.5 363.21C324.67 361.66 325.83 360.1 326.94 358.52C327.21 358.12 327.49 357.72 327.74 357.32C327.99 356.92 328.31 356.52 328.28 356.18C328.36 355.24 328.44 354.3 328.49 353.32C328.95 345.55 329.33 337.78 329.73 330.01L332.17 283.33L333.45 260.02L334.85 236.71Z" fill="#263238"/>
<path d="M368.29 362.04C367.98 364.9 367.7 367.04 367.45 368.23C366.29 373.83 348.02 397.23 332.23 416.69L321.4 348.58C323.33 324.41 327.89 234.65 327.89 234.65H348.89L368.29 362.04Z" fill="#263238"/>
<path d="M427.77 494.24C425.55 495.47 357.67 507.8 354.77 506.62C353.67 506.2 351.29 496.41 348.77 484.5L348.7 484.13C348.17 481.68 342.09 440 342.09 440L382.75 432.51L392.4 475.69L392.52 476.43C392.52 476.43 420.61 483.33 423.65 484.96C426.69 486.59 430 492.97 427.77 494.24Z" fill="#FFC4C0"/>
<path d="M347.72 479.36C348.05 480.97 348.38 482.54 348.72 484.08L348.79 484.46C351.32 496.36 353.7 506.15 354.79 506.57C357.67 507.75 425.55 495.42 427.79 494.19C430.03 492.96 426.68 486.53 423.67 484.91C420.66 483.29 392.54 476.39 392.54 476.39L392.42 475.64L391.69 470.99L347.72 479.36Z" fill="#EBEBEB"/>
<path d="M428.37 494.24C426.12 495.47 357.64 507.67 354.74 506.49C353.63 506.05 351.28 496.18 348.74 484.17L392.87 476.17C392.87 476.17 421.18 483.23 424.22 484.87C427.26 486.51 430.62 493.01 428.37 494.24Z" fill="#C8A05C"/>
<path d="M426.9 491.67C415.37 493.43 369.04 501.67 357.77 504.26C357.68 504.26 357.69 504.34 357.77 504.33C369.23 502.83 415.5 494.25 426.91 491.86C427.17 491.81 427.17 491.63 426.91 491.67H426.9Z" fill="#263238"/>
<path d="M419.4 483.18C416.81 483.57 414.5 485.02 413.03 487.18C411.72 489.11 411.19 491.47 411.56 493.77C411.56 493.83 411.7 493.77 411.7 493.77C411.67 488.96 414.82 484.7 419.43 483.33C419.47 483.31 419.48 483.26 419.46 483.22C419.45 483.2 419.42 483.18 419.4 483.18Z" fill="#263238"/>
<path d="M397.55 476.51C392.94 477.27 387.9 479.84 385.72 484.1C385.63 484.27 385.87 484.39 385.99 484.29C389.63 481.47 393.57 479.04 397.73 477.06C397.88 477 397.95 476.83 397.89 476.68C397.84 476.55 397.69 476.47 397.55 476.51Z" fill="#263238"/>
<path d="M401.34 477.24C396.73 478 391.7 480.57 389.51 484.84C389.43 485 389.66 485.12 389.79 485.02C393.43 482.2 397.36 479.77 401.52 477.79C401.67 477.73 401.74 477.56 401.68 477.41C401.63 477.28 401.48 477.2 401.34 477.24Z" fill="#263238"/>
<path d="M405.17 478.01C400.57 478.77 395.53 481.34 393.34 485.61C393.26 485.77 393.49 485.89 393.62 485.8C397.26 482.97 401.19 480.55 405.35 478.57C405.49 478.49 405.55 478.31 405.47 478.16C405.41 478.05 405.29 477.99 405.17 478.01Z" fill="#263238"/>
<path d="M408.93 478.76C404.32 479.52 399.28 482.09 397.1 486.36C397.01 486.52 397.25 486.64 397.37 486.55C401.01 483.72 404.95 481.3 409.11 479.32C409.25 479.24 409.31 479.06 409.23 478.91C409.17 478.8 409.05 478.74 408.93 478.76Z" fill="#263238"/>
<path d="M358.76 492.83C353.6 493.77 355.05 501.77 360.21 500.83C365.37 499.89 363.92 491.9 358.76 492.83Z" fill="white"/>
<path d="M400.33 463.37C397.66 461.85 395.06 464.26 393.99 466.52C392.21 470.43 391.49 474.74 391.9 479.01C391.9 479.08 391.97 479.13 392.04 479.13C392.04 479.13 392.06 479.13 392.07 479.13C392.19 479.42 392.52 479.56 392.82 479.44C392.87 479.42 392.92 479.39 392.96 479.35C395.83 476.51 399.25 473.82 401.16 470.18C402.27 468.05 402.85 464.81 400.33 463.38V463.37ZM396.43 474.14C395.05 475.57 393.61 476.93 392.29 478.41C392.63 475.96 393.09 473.54 393.67 471.14C393.97 469.99 394.34 468.85 394.79 467.75C395.52 466.05 399.35 461.41 400.69 466.32C401.44 469.03 398.07 472.43 396.43 474.14Z" fill="#263238"/>
<path d="M380.79 482.75C384.9 482.65 388.79 480.75 392.65 479.47C392.94 479.34 393.06 479 392.94 478.72C392.92 478.67 392.88 478.62 392.84 478.57C392.89 478.51 392.91 478.42 392.84 478.37C389.19 476.11 385.01 474.84 380.72 474.7C378.22 474.7 374.91 475.93 375.09 478.99C375.23 481.89 378.39 482.81 380.79 482.75ZM377.55 480.63C373.74 477.24 379.6 475.87 381.44 475.97C382.63 476.05 383.82 476.22 384.99 476.46C387.4 477.01 389.77 477.67 392.11 478.46C390.2 478.99 388.34 479.68 386.45 480.28C384.17 480.98 379.65 482.5 377.55 480.63Z" fill="#263238"/>
<path d="M361.67 234.65C361.67 234.65 360.56 252.65 355.59 265.53C355.59 265.53 348.41 270 347.66 270.71L390.38 463.24L346.57 471.76C346.57 471.76 329.36 378.5 327.89 372.11C325.54 361.85 306.89 274.58 306.11 269.62C304.39 259.25 313.96 234.69 313.96 234.69L361.67 234.65Z" fill="#37474F"/>
<path d="M385.91 453.58C373.86 455.39 350.83 460.27 347.99 461.45C347.93 461.45 347.99 461.6 347.99 461.6C351.06 461.55 379.13 455.98 385.93 453.8C385.99 453.8 386.04 453.74 386.03 453.68C386.03 453.62 385.97 453.57 385.91 453.58Z" fill="#263238"/>
<path d="M319.35 252.13C320.23 251.93 321.17 251.99 322.06 251.88C324.79 251.55 327.43 250.68 329.82 249.32C331.33 248.37 332.58 247.04 333.44 245.48C333.95 244.66 336.28 240.22 336.31 240.19C336.34 240.16 336.58 240.19 336.56 240.28C336.43 240.9 334.9 244.75 334.44 245.71C333.65 247.53 332.35 249.09 330.7 250.2C328.1 251.75 325.15 252.6 322.13 252.67C321.18 252.75 320.22 252.67 319.3 252.41C319.17 252.35 319.23 252.15 319.35 252.13Z" fill="#263238"/>
<path d="M356.63 265.05C352.63 266.46 348.77 268.21 345.08 270.3C345.01 270.33 344.98 270.4 345.01 270.47C345.04 270.54 345.11 270.57 345.18 270.54C349.07 268.91 353.04 267.35 356.83 265.54C356.97 265.48 357.03 265.33 356.97 265.19C356.91 265.05 356.76 264.99 356.62 265.04L356.63 265.05Z" fill="#263238"/>
<path d="M358.1 238.47C358.1 238.33 357.86 238.3 357.86 238.47C357.82 242.79 357.56 247.11 357.09 251.41C356.89 253.41 355.19 264.41 351.73 263.58C351.15 263.44 350.86 262.87 350.78 261.99C350.8 260.85 350.97 259.72 351.27 258.62C351.67 256.31 352 254 352.22 251.62C352.67 247.3 352.67 242.94 352.22 238.62C352.22 238.56 352.17 238.51 352.11 238.51C352.05 238.51 352 238.56 352 238.62C352.05 244.64 351.64 250.66 350.78 256.62C350.32 259.49 348.84 263.79 351.83 264.26C354.82 264.73 356.93 257.52 357.32 255.55C358.32 249.91 358.58 244.17 358.1 238.47Z" fill="#263238"/>
<path d="M351.82 263.86C351.5 264.6 351.24 265.36 351.02 266.14C350.79 266.74 350.68 267.38 350.68 268.02C350.68 268.14 350.85 268.15 350.92 268.07C351.29 267.51 351.56 266.9 351.74 266.25C352.01 265.54 352.3 264.84 352.55 264.13C352.61 263.92 352.49 263.71 352.29 263.64C352.1 263.58 351.9 263.68 351.82 263.85V263.86Z" fill="#263238"/>
<path d="M317.55 234.65C316.36 239.22 315.23 243.81 314.2 248.42C313.17 253.03 312.2 257.66 311.62 262.34L311.46 264.09C311.41 264.67 311.46 265.25 311.4 265.83L311.92 269.3L313.24 276.3L316.06 290.19L327.64 345.69L339.24 401.19L344.99 428.95L350.67 456.73L344.51 429.05L338.51 401.35L326.67 345.85C322.84 327.34 318.97 308.85 315.31 290.3L312.63 276.38L311.37 269.38L310.88 265.84C310.9 264.64 311 263.43 311.17 262.24C311.83 257.54 312.89 252.93 313.99 248.33C315.09 243.73 316.28 239.24 317.55 234.65Z" fill="#263238"/>
<path d="M347.19 475.55L342.85 465.93L390.55 456.69L391.13 466.23L347.19 475.55Z" fill="#455A64"/>
<path d="M378.43 166.31C380.18 170.77 382.67 174.83 384.06 179.45C385.42 183.7 385.82 188.2 385.23 192.62C382.75 208.8 361.68 218.51 346.88 213.48C339.81 211.08 333.65 205.34 331.77 197.97C329.47 188.97 334.29 180.27 337.21 172.03C338.83 167.41 339.63 162.55 339.58 157.66C339.58 153.37 339.33 149.02 340.19 144.79C340.81 141.79 342.87 133.01 353.98 129.5C361.98 126.99 370.03 131.35 373.75 138.92C378.07 147.73 374.98 157.46 378.43 166.31Z" fill="#263238"/>
<path d="M340.44 167.63C336.99 175.01 332.44 182.55 331.14 190.69C330.04 197.45 331.86 204.75 337.74 208.77C337.79 208.77 337.85 208.77 337.8 208.69C331.62 203.91 330.86 195.69 332.59 188.53C334.36 181.25 338.59 174.91 340.79 167.78C340.85 167.55 340.54 167.4 340.44 167.63Z" fill="#263238"/>
<path d="M338.88 167.24C336.27 176.92 328.3 184.55 327.79 194.85C327.79 194.97 327.97 195 327.98 194.85C328.65 184.56 337.51 177.26 339.07 167.24C339.05 167.19 339 167.16 338.94 167.18C338.91 167.18 338.89 167.21 338.88 167.24Z" fill="#263238"/>
<path d="M378.99 166.15C377.33 162.56 376.31 158.71 375.99 154.77C375.99 154.57 375.64 154.55 375.63 154.77C374.7 168.99 390.97 179.64 386.63 194.34C386.63 194.44 386.75 194.51 386.79 194.4C388.87 188.34 387.25 182.28 384.53 176.69C382.77 173.11 380.67 169.74 378.99 166.15Z" fill="#263238"/>
<path d="M375.7 152.66C375.7 152.39 375.27 152.47 375.29 152.73C375.68 158.05 377.4 163.19 380.29 167.67C381.7 169.88 383.44 171.86 384.81 174.11C386.31 176.56 387.47 179.2 388.73 181.78C388.73 181.85 388.85 181.78 388.83 181.78C387.19 176.88 384.62 172.99 381.68 168.78C378.38 163.99 376.33 158.45 375.7 152.66Z" fill="#263238"/>
<path d="M358.67 190.65C362.44 202.65 376 241.32 387.99 244.9C395.86 247.25 427.57 250.45 435.25 244.9C438.25 242.72 436.38 216.17 432 216.76C427.62 217.35 401.43 218.76 398.32 217.6C395.21 216.44 373.47 187.13 365.09 179.6C350.63 166.66 356.63 184.24 358.67 190.65Z" fill="#FFC4C0"/>
<path d="M383.88 198.34L365.7 217.69C365.7 217.69 356.17 190.1 355.59 181.24C355 171.24 360.25 173.11 367.45 179.39C374.65 185.67 383.88 198.34 383.88 198.34Z" fill="#C8A05C"/>
<path d="M380.17 195.73C379.44 196.31 373.72 202.3 372.51 203.62C371.3 204.94 366.28 210.33 365.14 211.81C365.09 211.87 365.14 211.96 365.23 211.9C366.62 210.67 371.7 205.26 372.96 203.9C374.22 202.54 379.75 196.53 380.27 195.78C380.27 195.75 380.17 195.69 380.17 195.73Z" fill="#263238"/>
<path opacity="0.1" d="M381.33 201.04L365.7 217.69C365.7 217.69 356.17 190.1 355.6 181.24C355.23 174.97 357.14 173.35 360.38 174.56C365.17 180.55 374.51 192.29 381.33 201.04Z" fill="black"/>
<path d="M207.721 348.715L174.654 467.706L238.592 485.473L271.658 366.482L207.721 348.715Z" fill="white"/>
<g opacity="0.1">
<path d="M203.779 362.84L203.578 363.562L267.515 381.33L267.716 380.607L203.779 362.84Z" fill="#020100"/>
<path d="M200.214 375.693L200.014 376.416L263.951 394.183L264.152 393.46L200.214 375.693Z" fill="#020100"/>
<path d="M195.38 387.669L195.177 388.391L258.885 406.31L259.088 405.588L195.38 387.669Z" fill="#020100"/>
<path d="M191.79 400.467L191.587 401.189L255.295 419.109L255.498 418.387L191.79 400.467Z" fill="#020100"/>
<path d="M189.496 414.268L189.295 414.991L253.232 432.758L253.433 432.036L189.496 414.268Z" fill="#020100"/>
<path d="M185.93 427.121L185.729 427.844L249.667 445.611L249.868 444.889L185.93 427.121Z" fill="#020100"/>
<path d="M182.355 439.984L182.154 440.707L246.092 458.474L246.292 457.751L182.355 439.984Z" fill="#020100"/>
<path d="M177.432 451.677L177.229 452.399L240.936 470.319L241.139 469.597L177.432 451.677Z" fill="#020100"/>
</g>
<path d="M237.273 356.899L204.228 475.896L209.161 477.265L242.206 358.269L237.273 356.899Z" fill="#263238"/>
<path d="M236.868 401.505L226.885 437.454L232.213 438.934L242.196 402.984L236.868 401.505Z" fill="#263238"/>
<path d="M241.1 476.55L225.74 472.28L217.13 479.48L238.63 485.45L241.1 476.55Z" fill="#263238"/>
<path d="M177.17 458.78L192.52 463.05L196.19 473.67L174.69 467.69L177.17 458.78Z" fill="#263238"/>
<path d="M224.78 493.12L230.46 494.7L237.2 485.06L224.93 481.65L226.95 487.97L224.78 493.12Z" fill="#263238"/>
<path d="M218.61 494.89C217.4 499.21 219.93 503.7 224.26 504.91C228.58 506.12 233.07 503.59 234.28 499.26C235.49 494.93 232.96 490.45 228.63 489.24C228.63 489.24 228.62 489.24 228.61 489.24C224.29 488.04 219.82 490.57 218.61 494.89Z" fill="#37474F"/>
<path d="M222.17 495.88C221.51 498.24 222.9 500.69 225.26 501.35C227.62 502.01 230.07 500.62 230.73 498.26C231.39 495.9 230 493.45 227.64 492.8C225.28 492.15 222.83 493.53 222.17 495.89V495.88Z" fill="#DBDBDB"/>
<path d="M227.07 494.45C226.9 495.07 226.84 495.59 226.93 495.61C227.02 495.63 227.23 495.16 227.4 494.54C227.57 493.92 227.64 493.41 227.55 493.38C227.46 493.35 227.24 493.84 227.07 494.45Z" fill="#263238"/>
<path d="M228.74 495.67C228.18 495.98 227.74 496.3 227.81 496.38C227.88 496.46 228.35 496.28 228.91 495.96C229.47 495.64 229.91 495.33 229.83 495.25C229.75 495.17 229.29 495.35 228.74 495.67Z" fill="#263238"/>
<path d="M229.06 497.7C228.44 497.53 227.92 497.47 227.9 497.56C227.88 497.65 228.35 497.86 228.96 498.03C229.57 498.2 230.1 498.27 230.12 498.18C230.14 498.09 229.67 497.87 229.06 497.7Z" fill="#263238"/>
<path d="M227.84 499.37C227.53 498.81 227.21 498.37 227.12 498.44C227.03 498.51 227.23 498.98 227.54 499.54C227.85 500.1 228.18 500.54 228.26 500.46C228.34 500.38 228.17 499.92 227.84 499.37Z" fill="#263238"/>
<path d="M225.81 499.69C225.98 499.07 226.04 498.55 225.95 498.53C225.86 498.51 225.65 498.98 225.47 499.59C225.29 500.2 225.24 500.73 225.33 500.75C225.42 500.77 225.63 500.3 225.81 499.69Z" fill="#263238"/>
<path d="M224.17 498.47C224.73 498.16 225.17 497.84 225.09 497.75C225.01 497.66 224.56 497.86 224 498.17C223.44 498.48 223 498.81 223.08 498.89C223.16 498.97 223.58 498.79 224.17 498.47Z" fill="#263238"/>
<path d="M223.82 496.44C224.44 496.61 224.96 496.67 224.98 496.58C225 496.49 224.53 496.28 223.91 496.1C223.29 495.92 222.78 495.87 222.75 495.96C222.72 496.05 223.17 496.24 223.82 496.44Z" fill="#263238"/>
<path d="M225.04 494.77C225.35 495.33 225.67 495.77 225.75 495.69C225.83 495.61 225.65 495.16 225.33 494.6C225.01 494.04 224.7 493.6 224.62 493.68C224.54 493.76 224.72 494.24 225.04 494.77Z" fill="#263238"/>
<path d="M182.6 481.4L176.92 479.82L176.12 468.09L188.39 471.5L183.39 475.87L182.6 481.4Z" fill="#263238"/>
<path d="M186.97 486.1C185.77 490.43 181.29 492.96 176.97 491.77C172.65 490.58 170.11 486.09 171.3 481.77C172.49 477.45 176.98 474.91 181.3 476.1C181.3 476.1 181.31 476.1 181.32 476.1C185.64 477.3 188.17 481.78 186.97 486.1Z" fill="#37474F"/>
<path d="M183.42 485.12C182.76 487.48 180.31 488.86 177.95 488.21C175.59 487.55 174.21 485.1 174.86 482.74C175.52 480.38 177.96 479 180.32 479.65C182.68 480.31 184.07 482.75 183.41 485.12H183.42Z" fill="#DBDBDB"/>
<path d="M179.95 481.36C179.78 481.98 179.57 482.45 179.47 482.43C179.37 482.41 179.47 481.88 179.62 481.27C179.77 480.66 180 480.18 180.09 480.2C180.18 480.22 180.17 480.75 179.95 481.36Z" fill="#263238"/>
<path d="M177.9 481.54C178.21 482.1 178.4 482.59 178.32 482.63C178.24 482.67 177.91 482.27 177.6 481.71C177.29 481.15 177.1 480.71 177.18 480.62C177.26 480.53 177.58 480.99 177.9 481.54Z" fill="#263238"/>
<path d="M176.57 483.12C177.19 483.29 177.67 483.51 177.64 483.6C177.61 483.69 177.1 483.6 176.48 483.45C175.86 483.3 175.39 483.07 175.41 482.98C175.43 482.89 175.96 482.95 176.57 483.12Z" fill="#263238"/>
<path d="M176.75 485.17C177.31 484.86 177.75 484.67 177.85 484.76C177.95 484.85 177.48 485.16 176.92 485.47C176.36 485.78 175.92 485.98 175.83 485.89C175.74 485.8 176.17 485.49 176.75 485.17Z" fill="#263238"/>
<path d="M178.33 486.5C178.51 485.88 178.72 485.41 178.81 485.43C178.9 485.45 178.81 485.98 178.67 486.59C178.53 487.2 178.28 487.68 178.19 487.66C178.1 487.64 178.17 487.11 178.33 486.5Z" fill="#263238"/>
<path d="M180.39 486.32C180.07 485.76 179.89 485.27 179.97 485.23C180.05 485.19 180.37 485.59 180.69 486.15C181.01 486.71 181.19 487.15 181.11 487.24C181.03 487.33 180.7 486.87 180.39 486.32Z" fill="#263238"/>
<path d="M181.71 484.74C181.1 484.57 180.62 484.35 180.64 484.26C180.66 484.17 181.19 484.26 181.8 484.41C182.41 484.56 182.9 484.79 182.87 484.88C182.84 484.97 182.33 484.91 181.71 484.74Z" fill="#263238"/>
<path d="M181.53 482.68C180.97 483 180.53 483.19 180.44 483.1C180.35 483.01 180.8 482.7 181.36 482.39C181.92 482.08 182.36 481.88 182.45 481.97C182.54 482.06 182.08 482.37 181.53 482.68Z" fill="#263238"/>
<path d="M245.202 353.311L243.714 358.668L254.39 361.633L255.878 356.275L245.202 353.311Z" fill="#263238"/>
<path d="M289.782 272.048L264.108 364.438L268.964 365.787L294.638 273.398L289.782 272.048Z" fill="#C7C7C7"/>
<path d="M289.14 270.415L285.905 282.054L292.813 283.974L296.048 272.335L289.14 270.415Z" fill="#263238"/>
<path d="M371.71 216.97L370.07 234.65H313.96C313.96 234.65 329.96 190.49 345.86 175.58C352.18 169.65 358.05 171.41 362.54 175.95C363.54 176.95 375.9 197.37 376.94 204.65C377.79 210.63 371.71 216.97 371.71 216.97Z" fill="#C8A05C"/>
<path d="M363.9 213.62C361.07 213.69 358.26 214.02 355.49 214.62C354.1 214.94 352.74 215.35 351.37 215.79C350.69 216.01 350 216.2 349.32 216.39C348.62 216.61 347.89 216.72 347.15 216.72C347.08 216.72 347.07 216.84 347.15 216.84C347.83 216.95 348.51 216.99 349.2 216.98C349.87 216.93 350.54 216.83 351.2 216.68C352.6 216.37 354 215.97 355.41 215.68C358.24 215.02 361.07 214.35 363.92 213.95C364.03 213.9 364.03 213.61 363.9 213.62Z" fill="#263238"/>
<path d="M370.46 217.41C368.2 216.91 365.91 216.58 363.61 216.41C362.46 216.34 361.3 216.34 360.15 216.41C359.6 216.41 359.04 216.47 358.49 216.51C357.94 216.55 357.27 216.7 356.66 216.73C356.6 216.73 356.59 216.86 356.66 216.86C357.24 216.86 357.81 216.97 358.38 217L360.1 217.1C361.25 217.16 362.4 217.25 363.55 217.3C365.86 217.41 368.15 217.54 370.45 217.75C370.56 217.67 370.57 217.44 370.45 217.41H370.46Z" fill="#263238"/>
<g opacity="0.1">
<path d="M370.68 228.08L370.63 228.56C369.16 228.7 367.63 228.76 366.19 228.76C362.88 228.79 359.57 228.55 356.29 228.07C354.88 227.85 353.48 227.58 352.09 227.27L350.55 226.9C349.23 226.59 347.91 226.24 346.6 225.9C345.6 225.63 344.6 225.37 343.65 225.12L342.28 224.77C340.52 224.33 338.75 223.94 336.97 223.64C335.35 223.35 333.72 223.16 332.08 223.08C330.44 223.03 328.8 223.08 327.17 223.24C324.06 223.52 320.96 224.07 317.87 224.62C317.97 224.39 318.07 224.15 318.16 223.9C321.14 223.33 324.14 222.9 327.16 222.63C328.82 222.48 330.49 222.45 332.16 222.54C333.82 222.65 335.47 222.87 337.1 223.2C339.1 223.56 341.05 224.04 343.01 224.56L344.32 224.92L346.73 225.61C348.17 226.03 349.63 226.42 351.09 226.76L352.71 227.12C353.93 227.37 355.15 227.59 356.38 227.76C359.65 228.2 362.94 228.39 366.24 228.33C367.69 228.33 369.17 228.24 370.68 228.08Z" fill="black"/>
<path d="M371.17 222.71V222.99L370.12 222.83C366.85 222.38 363.56 222.19 360.26 222.25C356.97 222.31 353.7 222.68 350.48 223.38C348.4 223.81 346.35 224.38 344.29 224.94L343.67 225.12C342.75 225.37 341.83 225.63 340.9 225.87C334.5 227.71 327.81 228.35 321.17 227.75C319.75 227.59 318.34 227.35 316.95 227.04L317.24 226.32C318.57 226.6 319.91 226.83 321.24 226.98C327.79 227.54 334.39 226.93 340.73 225.18L342.31 224.77L342.99 224.58C345.43 223.94 347.88 223.29 350.37 222.81C353.63 222.16 356.95 221.82 360.27 221.81C363.59 221.79 366.9 222.02 370.18 222.51L371.17 222.71Z" fill="black"/>
<path d="M370.93 225.34L370.86 226.12C370.44 226.05 370.02 226 369.6 225.95C363.93 225.45 358.21 225.85 352.66 227.14C352.47 227.17 352.28 227.21 352.09 227.27C351.43 227.41 350.77 227.58 350.09 227.75C346.9 228.57 343.71 229.49 340.45 230.12C337.19 230.77 333.87 231.11 330.55 231.12C327.23 231.14 323.92 230.91 320.64 230.42C319.06 230.18 317.48 229.86 315.92 229.5C315.94 229.42 315.97 229.34 316.01 229.27C317.56 229.62 319.12 229.91 320.69 230.13C323.95 230.58 327.25 230.77 330.54 230.71C333.83 230.66 337.11 230.28 340.33 229.58C343.55 228.91 346.7 227.93 349.91 227.09L350.53 226.93C350.69 226.88 350.85 226.84 351.02 226.81C357.09 225.17 363.41 224.63 369.67 225.21L370.93 225.34Z" fill="black"/>
</g>
<path d="M344.34 185.24C339.45 192.24 318.84 221.57 318.24 223.1C317.64 224.63 307.08 255.54 305.98 260.54C305.21 264.07 280.93 252.34 281.79 249.31C283.79 242.21 289.29 220.92 294.59 213.2C301.5 203.15 329.95 179.2 338.59 175.78C347.23 172.36 352.37 173.7 344.34 185.24Z" fill="#FFC4C0"/>
<path d="M292.17 272.04C293.69 271.13 294.17 271.92 293.06 274.86C291.95 277.8 285 288.51 288.93 290.61C292.86 292.71 302.44 277.48 303.93 272.44C305.42 267.4 306.07 258.71 306.07 258.71C303.66 261.3 297.1 267.02 292.17 272.04Z" fill="#FFC4C0"/>
<path d="M285.17 242.81C278.52 250.37 269.77 259.37 267.62 270.52C267.35 271.75 267.51 273.04 268.06 274.18C267.06 279.18 269.06 281.18 269.06 281.18C269.5 286.12 271.87 287.87 271.87 287.87C271.87 287.87 270.7 293.73 274.12 295.03C277.96 296.49 278.85 288.03 282.21 283.59C289.9 273.59 303.64 261.41 306.14 258.74L285.17 242.81Z" fill="#FFC4C0"/>
<path d="M282.841 267.37C280.551 270.28 278.471 273.35 276.601 276.55C274.781 280.17 273.221 283.93 271.961 287.78C271.941 287.83 271.891 287.86 271.831 287.84C271.801 287.84 271.781 287.81 271.771 287.78C273.461 280.06 277.241 272.95 282.701 267.24C282.831 267.14 282.951 267.24 282.841 267.37Z" fill="#263238"/>
<path d="M277.45 261.85C275.45 264.85 272.02 270.25 269.15 281.18L277.45 261.85ZM269.08 281.18C269.97 274.07 272.81 267.35 277.3 261.76C277.44 261.57 277.58 261.64 277.45 261.85L269.08 281.18Z" fill="#263238"/>
<path d="M274.5 258.93C271.32 264.23 269.99 267.93 268.08 274.16C268.08 274.16 268 274.16 268.01 274.16C269.45 266.9 270.79 264.42 274.33 258.81C274.45 258.61 274.62 258.73 274.5 258.93Z" fill="#263238"/>
<path d="M313.31 237.54C313.62 236.08 314.02 234.65 314.42 233.23C314.82 231.81 315.28 230.4 315.74 228.99C316.2 227.58 316.74 226.19 317.27 224.81C317.54 224.11 317.88 223.44 318.27 222.81C318.72 222.21 319.14 221.6 319.6 221.02C319.28 221.69 318.92 222.34 318.6 223.02C318.29 223.66 318.03 224.33 317.85 225.02C317.41 226.43 316.95 227.83 316.48 229.24C316.01 230.65 315.53 232.04 315 233.42C314.47 234.8 313.92 236.18 313.31 237.54Z" fill="#263238"/>
<path d="M331.53 209.24L306.06 195.78C306.06 195.78 332.17 177.84 341.34 174.78C351.65 171.28 351.18 177.32 346.68 186.65C342.18 195.98 331.53 209.24 331.53 209.24Z" fill="#C8A05C"/>
<path d="M333.17 204.61C332.35 204.01 324.45 199.75 322.71 198.87C320.97 197.99 313.91 194.28 312.04 193.51C312.01 193.49 311.96 193.5 311.94 193.53C311.92 193.56 311.93 193.61 311.96 193.63C313.65 194.73 320.77 198.48 322.52 199.43C324.27 200.38 332.18 204.43 333.11 204.73C333.17 204.76 333.23 204.65 333.17 204.61Z" fill="#263238"/>
<path d="M328.23 207.53C329.38 208.02 330.51 208.53 331.62 209.08H331.36L337.73 200.36C339.84 197.44 341.96 194.54 343.97 191.53C343.17 193.15 342.29 194.73 341.32 196.26C340.38 197.81 339.32 199.26 338.32 200.77C337.32 202.28 336.2 203.69 335.11 205.13C334.02 206.57 332.87 207.96 331.71 209.35L331.59 209.49L331.45 209.41C330.35 208.83 329.29 208.24 328.23 207.53Z" fill="#263238"/>
<path d="M339.86 198C340.36 197.35 340.91 196.74 341.51 196.18C342.1 195.62 342.74 195.1 343.41 194.63C343.2 194.98 342.97 195.32 342.7 195.63C342.43 195.95 342.15 196.25 341.85 196.53C341.26 197.11 340.59 197.6 339.86 198Z" fill="#263238"/>
<path d="M349.75 174.84C350.21 175.84 356.68 181.95 361.59 180.84C363.19 180.47 361.52 171.66 361.52 171.66V170.98L361.87 161.48L349.87 156.59L348.15 155.97C348.15 155.97 348.23 158.57 348.35 161.82V162.28C348.34 162.46 348.34 162.63 348.35 162.81C348.35 163.29 348.35 163.81 348.4 164.28C348.45 164.75 348.4 165.02 348.46 165.41C348.52 165.8 348.52 166.19 348.54 166.59C348.76 169.36 349.16 172.12 349.75 174.84Z" fill="#FFC4C0"/>
<path d="M361.89 161.43L361.64 168.17C356.64 170.17 350.5 168.95 348.8 168.55C348.73 167.89 348.67 167.21 348.61 166.55C348.61 166.15 348.56 165.77 348.54 165.37C348.52 164.97 348.49 164.61 348.47 164.24C348.45 163.87 348.47 163.24 348.42 162.77V161.78C348.29 158.53 348.21 155.93 348.21 155.93L349.93 156.55L361.89 161.43Z" fill="#263238"/>
<path d="M338.32 142.93C330.19 157.5 338 164.01 341.15 165.76C344 167.35 353.92 172.39 363.51 158.76C373.1 145.13 368.89 136.76 362.51 132.76C356.13 128.76 346.44 128.36 338.32 142.93Z" fill="#FFC4C0"/>
<path d="M343.3 141.1C343.66 141.23 344.03 141.35 344.4 141.44C344.77 141.62 345.19 141.66 345.59 141.57C345.84 141.47 345.98 141.21 345.94 140.94C345.78 140.43 345.36 140.05 344.84 139.94C344.34 139.74 343.78 139.74 343.28 139.94C342.96 140.09 342.83 140.48 342.98 140.8C343.05 140.94 343.16 141.04 343.3 141.1Z" fill="#263238"/>
<path d="M352.85 146.56C352.55 146.32 352.26 146.07 351.98 145.8C351.64 145.58 351.38 145.25 351.24 144.86C351.2 144.6 351.35 144.34 351.59 144.23C352.11 144.1 352.66 144.25 353.03 144.63C353.46 144.96 353.75 145.43 353.84 145.96C353.89 146.3 353.65 146.62 353.3 146.67C353.14 146.69 352.98 146.65 352.85 146.56Z" fill="#263238"/>
<path d="M348.85 149.15C348.85 149.15 348.9 149.24 348.85 149.28C348.24 150.28 347.71 151.44 348.4 152.28C347.4 151.55 348.17 149.96 348.85 149.15Z" fill="#263238"/>
<path d="M350.33 148.64C351.97 149.45 350.24 152.64 348.71 151.93C347.18 151.22 348.95 147.96 350.33 148.64Z" fill="#263238"/>
<path d="M350.87 149.15C351.06 149.49 351.16 149.96 351.48 150.15C351.8 150.34 352.33 150.22 352.76 150.03C352.81 150.03 352.82 150.03 352.76 150.1C352.44 150.72 351.86 151.23 351.14 150.96C350.54 150.62 350.29 149.87 350.57 149.24C350.61 149.14 350.8 149.02 350.87 149.15Z" fill="#263238"/>
<path d="M343.17 145.8H343.05C342.55 146.8 341.81 147.9 340.72 147.8C340.72 147.8 340.66 147.85 340.72 147.86C341.91 148.3 342.88 146.85 343.17 145.8Z" fill="#263238"/>
<path d="M342.85 144.24C341.3 143.24 339.46 146.43 340.9 147.34C342.34 148.25 344.17 145.09 342.85 144.24Z" fill="#263238"/>
<path d="M342.07 144.1C341.72 144.1 341.29 144.29 340.98 144.1C340.67 143.91 340.56 143.43 340.53 142.98H340.46C340.1 143.58 339.93 144.33 340.46 144.78C340.99 145.23 341.62 144.9 342.11 144.38C342.17 144.31 342.17 144.09 342.07 144.1Z" fill="#263238"/>
<path d="M344.17 156.99C343.82 157.18 343.41 157.25 343.02 157.17C342.63 156.99 342.29 156.72 342.02 156.39C342.02 156.39 341.94 156.39 341.95 156.39C342.05 156.94 342.43 157.39 342.95 157.57C343.43 157.66 343.92 157.46 344.19 157.05C344.33 157.03 344.26 156.97 344.17 156.99Z" fill="#263238"/>
<path d="M342.04 151.1C342.04 151.1 341.04 152.47 340.62 153.17C340.62 153.23 340.74 153.36 340.97 153.5C342.07 154.4 343.59 154.61 344.89 154.04C344.97 154.04 344.89 153.88 344.84 153.89C343.61 154.01 342.37 153.72 341.31 153.08C341.37 152.86 343.15 150.79 343.05 150.72C342.48 150.47 341.88 150.3 341.26 150.2C343.31 147.28 345.82 144.72 347.82 141.78C347.86 141.73 347.85 141.66 347.8 141.63C347.76 141.6 347.7 141.6 347.66 141.63C344.89 144.3 342.4 147.24 340.21 150.4C339.96 150.79 341.69 151.06 342.04 151.1Z" fill="#263238"/>
<path d="M341.72 153.56C341.82 154.25 342.1 154.89 342.53 155.44C342.77 155.73 343.09 155.94 343.46 156.04C344.26 156.24 344.63 155.61 344.81 155.04C344.9 154.71 344.95 154.38 344.96 154.04C343.86 154.24 342.72 154.07 341.72 153.56Z" fill="#263238"/>
<path d="M342.53 155.44C342.77 155.73 343.09 155.94 343.46 156.04C344.26 156.24 344.63 155.61 344.81 155.04C344.05 154.63 343.11 154.8 342.53 155.44Z" fill="#FF9CBD"/>
<path d="M361.98 158.77C358.91 157.02 362.69 149.88 362.69 149.88C362.69 149.88 361.27 148.19 361.08 143.45C361.08 143.45 360.82 147.31 362.16 149.71C362.39 150.11 352.39 143.17 355.89 134.5C351.69 137.92 346.22 139.35 340.89 138.43C340.62 138.37 345.65 131.53 348.15 130.68C349.6 130.18 351.11 129.86 352.64 129.75C357.14 129.14 361.7 130.32 365.34 133.04C371.34 137.6 371.79 146.8 370.72 149.88C368.63 155.93 363.43 159.6 361.98 158.77Z" fill="#263238"/>
<path d="M361.73 149.7C356.09 146.24 353.54 140 356.33 133.83C356.4 133.68 356.18 133.56 356.08 133.69C351.97 139.24 356.01 147.24 361.72 149.83C361.86 149.89 361.86 149.78 361.73 149.7Z" fill="#263238"/>
<path d="M356.11 134.3C356.11 134.3 356.11 134.23 356.06 134.3C352.89 136.51 348.41 141.06 344.22 138.45C344.11 138.38 343.99 138.54 344.1 138.61C347.9 141.43 353.81 137.5 356.11 134.3Z" fill="#263238"/>
<path d="M360.57 158.56C360.57 158.56 366.02 155.3 367.65 157.46C369.28 159.62 363.65 165.37 360.73 165.18C359.17 165.18 357.9 163.93 357.9 162.37C357.9 162.33 357.9 162.29 357.9 162.25L360.57 158.56Z" fill="#FFC4C0"/>
<path d="M366 159.07C366 159.07 366 159.15 366 159.14C363.9 159.07 362.23 160.29 360.81 161.7C361.51 161.2 362.49 161.36 362.99 162.06C363.04 162.13 363.08 162.19 363.11 162.27C363.11 162.27 363.06 162.38 363.02 162.34C362.47 161.85 361.67 161.75 361.02 162.11C360.49 162.39 360 162.72 359.55 163.11C359.39 163.23 359.15 163.02 359.29 162.86C360.29 160.58 363.47 158.24 366 159.07Z" fill="#263238"/>
<path d="M342.66 173.55C341.87 172.55 347.44 172.55 348.8 173.63C350.16 174.71 355.36 188.29 352.68 205.54C350 222.79 315.9 236.24 314.6 233.62L317.1 226.17C318.4 224.83 340.75 217.17 343.66 206.48C346.24 197 346.01 177.63 342.66 173.55Z" fill="#263238"/>
<path d="M433.99 213.73C432.27 209.73 437.1 204.39 435.99 200.31C434.51 194.78 428.48 200.56 427.48 208.74L427.81 215.23L433.99 213.73Z" fill="#FFC4C0"/>
</g>
<defs>
<clipPath id="clip0_1320_7464">
<rect width="268.35" height="383.7" fill="white" transform="translate(171 123)"/>
</clipPath>
</defs>
</svg>
