<svg width="40" height="40" viewBox="0 0 40 40" fill="none" xmlns="http://www.w3.org/2000/svg">
<rect width="40" height="40" rx="20" fill="#C8A05C" fill-opacity="0.3"/>
<path d="M20 30C25.5228 30 30 25.5228 30 20C30 14.4772 25.5228 10 20 10C14.4772 10 10 14.4772 10 20C10 25.5228 14.4772 30 20 30Z" stroke="#C8A05C" stroke-width="2" stroke-linecap="round" stroke-linejoin="round"/>
<path d="M20 30C25.5228 30 30 25.5228 30 20C30 14.4772 25.5228 10 20 10C14.4772 10 10 14.4772 10 20C10 25.5228 14.4772 30 20 30Z" stroke="#C8A05C" stroke-width="2" stroke-linecap="round" stroke-linejoin="round"/>
<path d="M27.13 13.0898C23.22 17.1398 18 18.4398 10.25 18.9398" stroke="#C8A05C" stroke-width="2" stroke-linecap="round" stroke-linejoin="round"/>
<path d="M29.7501 20.8396C23.1301 19.4296 17.6101 21.8396 13.3701 27.1596" stroke="#C8A05C" stroke-width="2" stroke-linecap="round" stroke-linejoin="round"/>
<path d="M16.5596 10.75C20.9296 16.75 22.5596 20.17 24.5596 28.47" stroke="#C8A05C" stroke-width="2" stroke-linecap="round" stroke-linejoin="round"/>
</svg>
