<svg width="418" height="418" viewBox="0 0 418 418" fill="none" xmlns="http://www.w3.org/2000/svg">
<g opacity="0.2">
<path d="M209.004 387.425C110.62 387.425 30.5781 307.384 30.5781 209.001C30.5781 110.617 110.62 30.5762 209.004 30.5762C307.388 30.5762 387.428 110.617 387.428 209.001C387.428 307.384 307.388 387.425 209.004 387.425ZM209.004 34.0286C112.523 34.0286 34.0303 112.521 34.0303 209.001C34.0303 305.48 112.523 383.973 209.004 383.973C305.483 383.973 383.976 305.481 383.976 209.001C383.976 112.521 305.483 34.0286 209.004 34.0286Z" fill="#FF0051"/>
<path d="M208.995 398.002C104.779 398.002 19.9922 313.215 19.9922 208.999C19.9922 104.782 104.779 19.9961 208.995 19.9961C313.212 19.9961 397.997 104.782 397.997 208.999C397.997 313.215 313.212 398.002 208.995 398.002ZM208.995 22.5852C106.207 22.5852 22.5813 106.21 22.5813 208.999C22.5813 311.788 106.207 395.412 208.995 395.412C311.784 395.412 395.408 311.788 395.408 208.999C395.408 106.21 311.784 22.5852 208.995 22.5852Z" fill="#FF0051"/>
<path d="M209.005 408.026C99.2608 408.026 9.97656 318.743 9.97656 208.999C9.97656 99.2543 99.2611 9.9707 209.005 9.9707C318.748 9.9707 408.033 99.2543 408.033 208.999C408.033 318.743 318.748 408.026 209.005 408.026ZM209.005 11.6969C100.212 11.6969 11.7025 100.206 11.7025 208.999C11.7025 317.791 100.212 406.3 209.005 406.3C317.798 406.3 406.307 317.791 406.307 208.999C406.307 100.206 317.798 11.6969 209.005 11.6969Z" fill="#FF0051"/>
<path d="M209.001 418C93.7569 418 0 324.243 0 209C0 93.7571 93.7566 0 209.001 0C324.243 0 418 93.7571 418 209C418 324.243 324.243 418 209.001 418ZM209.001 0.863111C94.2338 0.863111 0.863111 94.2328 0.863111 209C0.863111 323.767 94.2338 417.136 209.001 417.136C323.768 417.136 417.137 323.767 417.137 209C417.137 94.2328 323.768 0.863111 209.001 0.863111Z" fill="#FF0051"/>
</g>
<path d="M338.705 290.966C340.854 287.571 342.889 284.059 344.755 280.53L356.116 286.535C367.385 265.238 374.161 241.218 375.181 215.738L362.296 215.233C362.375 213.21 362.416 211.176 362.416 209.132C362.416 207.147 362.379 205.156 362.302 203.157L362.272 202.438L375.168 201.941C374.099 176.481 367.281 152.486 355.978 131.217L344.632 137.227C342.768 133.71 340.738 130.217 338.594 126.848L349.425 119.96C336.143 99.0902 318.34 81.3712 297.405 68.1827L290.561 79.0523C287.183 76.9263 283.675 74.9052 280.131 73.0473L286.101 61.6666C264.774 50.4618 240.734 43.7559 215.243 42.8105L214.773 55.6972C210.931 55.5585 207.056 55.5585 203.155 55.7085L202.532 42.8192C176.91 43.8051 152.759 50.6109 131.361 61.9541L137.362 73.3074C133.849 75.1656 130.349 77.196 126.962 79.3429L120.09 68.5033C99.2074 81.7649 81.4713 99.5504 68.2636 120.471L79.1281 127.33C77.0039 130.695 74.9805 134.201 73.117 137.745L61.74 131.764C50.5114 153.084 43.7811 177.122 42.8125 202.614L55.6999 203.103C55.6268 205.023 55.5914 206.949 55.5914 208.882C55.5914 210.867 55.6289 212.858 55.7057 214.857L42.8155 215.474C43.7984 241.041 50.5765 265.143 61.8752 286.506L73.2353 280.518C75.086 284.029 77.1124 287.53 79.2572 290.919L68.412 297.781C81.653 318.677 99.4195 336.431 120.325 349.658L127.193 338.799C130.562 340.931 134.068 342.959 137.612 344.827L131.618 356.195C152.927 367.444 176.956 374.197 202.441 375.191L202.939 362.304C206.773 362.452 210.646 362.458 214.543 362.317L215.259 362.291L215.662 375.188C241.098 374.181 265.08 367.438 286.353 356.215L280.372 344.851C283.908 342.989 287.412 340.966 290.782 338.836L297.635 349.688C318.543 336.469 336.314 318.724 349.561 297.836L338.705 290.966Z" fill="#010043"/>
<path d="M117.435 207.873L127.239 206.12L131.786 229.357L136.686 204.43L146.132 202.74L146.849 243.974L140.362 245.135L139.597 217.747L134.796 246.13L129.028 247.162L123.92 220.347L123.306 248.185L116.719 249.363L117.435 207.873Z" fill="white"/>
<path d="M158.492 200.53L167.632 198.895V240.257L158.492 241.892V200.53Z" fill="white"/>
<path d="M179.43 196.784L185.864 195.634L194.341 214.032V194.118L201.898 192.766V234.127L195.72 235.233L187.243 215.302V236.749L179.43 238.146L179.43 196.784Z" fill="white"/>
<path d="M218.285 230.304C216.481 229.623 215.214 228.369 214.482 226.541C213.749 224.716 213.383 222.287 213.383 219.257V190.712L222.422 189.095V219.019C222.422 220.687 222.634 221.976 223.061 222.888C223.485 223.799 224.345 224.138 225.638 223.907C226.932 223.676 227.784 223.03 228.192 221.97C228.602 220.91 228.805 219.546 228.805 217.877V187.954L237.895 186.328V214.873C237.895 217.903 237.519 220.464 236.77 222.555C236.022 224.647 234.754 226.354 232.967 227.678C231.181 229.002 228.736 229.94 225.638 230.494C222.541 231.049 220.089 230.985 218.285 230.304Z" fill="white"/>
<path d="M253.059 190.405L246.828 191.52V184.729L268.429 180.865V187.656L262.249 188.761V223.333L253.059 224.976V190.405Z" fill="white"/>
<path d="M277.672 179.212L296.26 175.887V182.116L286.812 183.806V194.07L294.011 192.783V199.114L286.812 200.402V212.76L296.361 211.052V217.231L277.672 220.574V179.212Z" fill="white"/>
<path d="M115.305 131.418L130.206 128.752V186.112L145.691 183.342V193.416L115.305 198.851V131.418Z" fill="white"/>
<path d="M170.831 121.486L187.816 118.447L200.388 183.633L186.649 186.09L184.402 172.256L174.495 174.028L172.164 188.681L158.094 191.197L170.831 121.486ZM182.986 163.601L179.407 137.934L175.827 164.881L182.986 163.601Z" fill="white"/>
<path d="M219.248 176.138C216.111 173.286 214.43 168.162 214.211 160.763L226.948 156.571C227.002 160.835 227.516 163.809 228.489 165.494C229.458 167.181 230.914 167.849 232.858 167.501C235.356 167.054 236.604 165.195 236.604 161.918C236.604 159.311 236.007 157.17 234.815 155.496C233.62 153.824 231.747 152.131 229.195 150.424L223.368 146.388C220.482 144.462 218.248 142.267 216.666 139.803C215.084 137.338 214.294 134.22 214.294 130.445C214.294 124.784 215.971 120.128 219.329 116.473C222.687 112.822 227.309 110.468 233.192 109.416C239.574 108.274 243.916 109.358 246.221 112.664C248.524 115.97 249.759 120.272 249.924 125.57L237.105 129.445C236.992 125.969 236.675 123.515 236.147 122.082C235.619 120.651 234.467 120.093 232.693 120.411C231.415 120.639 230.431 121.357 229.736 122.563C229.042 123.769 228.696 125.039 228.696 126.371C228.696 128.647 229.207 130.47 230.235 131.839C231.263 133.21 232.912 134.69 235.189 136.282L240.767 140.195C244.098 142.43 246.677 144.966 248.509 147.802C250.342 150.637 251.255 154.22 251.255 158.549C251.255 161.713 250.52 164.717 249.051 167.56C247.579 170.404 245.512 172.813 242.847 174.788C240.184 176.763 237.104 178.063 233.606 178.689C227.169 179.841 222.382 178.991 219.248 176.138Z" fill="white"/>
<path d="M273.733 114.152L263.578 115.969V104.896L298.792 98.5977V109.67L288.719 111.472V167.833L273.733 170.514V114.152Z" fill="white"/>
<path d="M121.295 314.633C118.487 311.753 117.086 307.006 117.086 300.393V277.773C117.086 271.16 118.487 265.938 121.295 262.103C124.1 258.271 128.783 255.767 135.347 254.593C141.96 253.41 146.682 254.244 149.514 257.094C152.342 259.944 153.758 264.65 153.758 271.213V293.833C153.758 300.446 152.342 305.697 149.514 309.586C146.682 313.473 141.96 316.008 135.347 317.192C128.783 318.366 124.1 317.513 121.295 314.633ZM139.105 305.06C139.706 303.675 140.007 301.88 140.007 299.675V270.367C140.007 268.112 139.706 266.413 139.105 265.268C138.503 264.124 137.25 263.721 135.347 264.062C133.543 264.384 132.34 265.238 131.74 266.623C131.139 268.008 130.839 269.803 130.839 272.007V301.315C130.839 303.52 131.112 305.211 131.665 306.39C132.215 307.569 133.442 307.988 135.347 307.648C137.25 307.307 138.503 306.445 139.105 305.06Z" fill="white"/>
<path d="M161.945 250.66L188.246 245.955V255.049L175.397 257.347V272.678L186.594 270.675V280.068L175.397 282.071V309.125L161.945 311.531V250.66Z" fill="white"/>
<path d="M194.562 244.828L220.863 240.123V249.217L208.013 251.515V266.845L219.211 264.843V274.236L208.013 276.239V303.293L194.562 305.699V244.828Z" fill="white"/>
<path d="M227.18 238.992L254.533 234.1V243.268L240.63 245.755V260.859L251.226 258.964V268.282L240.63 270.178V288.364L254.685 285.851V294.944L227.18 299.864L227.18 238.992Z" fill="white"/>
<path d="M260.774 232.984L277.531 229.987C284.195 228.795 289.228 229.072 292.637 230.817C296.043 232.564 297.748 236.442 297.748 242.454C297.748 246.512 297.222 249.837 296.168 252.43C295.116 255.023 293.162 257.251 290.307 259.114L298.648 287.081L284.746 289.568L278.059 263.484L274.225 264.169V291.449L260.773 293.855L260.774 232.984ZM277.983 255.758C280.689 255.274 282.578 254.222 283.655 252.601C284.734 250.981 285.272 248.743 285.272 245.887C285.272 243.132 284.771 241.155 283.77 239.956C282.765 238.759 281.037 238.378 278.585 238.817L274.226 239.596V256.43L277.983 255.758Z" fill="white"/>
<path d="M337.12 37.1966C337.543 28.7048 331.002 21.4776 322.511 21.0542C314.019 20.6308 306.792 27.1715 306.368 35.6633C305.945 44.1551 312.486 51.3823 320.977 51.8057C329.469 52.2291 336.696 45.6884 337.12 37.1966Z" fill="#A4110E"/>
<path d="M337.144 76.0309C337.144 78.6336 335.034 80.7432 332.431 80.7432C329.829 80.7432 327.719 78.6336 327.719 76.0309C327.719 73.4282 329.829 71.3184 332.431 71.3184C335.034 71.3184 337.144 73.4282 337.144 76.0309Z" fill="#A4110E"/>
<path d="M72.3815 380.779C83.3104 380.55 91.9848 371.505 91.7564 360.576C91.5279 349.648 82.4831 340.973 71.5542 341.202C60.6253 341.43 51.9508 350.475 52.1793 361.404C52.4077 372.333 61.4526 381.007 72.3815 380.779Z" fill="#A4110E"/>
<path d="M61.9084 329.77C63.7693 327.71 63.6077 324.531 61.5474 322.67C59.4872 320.809 56.3085 320.971 54.4476 323.031C52.5867 325.092 52.7483 328.27 54.8085 330.131C56.8687 331.992 60.0475 331.83 61.9084 329.77Z" fill="#A4110E"/>
</svg>
