<svg width="452" height="426" viewBox="0 0 452 426" fill="none" xmlns="http://www.w3.org/2000/svg">
<path d="M413.297 210.918C412.127 210.176 410.573 210.153 409.348 210.792C408.74 211.115 408.163 211.49 407.54 211.782C406.931 212.09 406.279 212.362 405.784 212.857C405.28 213.33 404.896 213.933 404.693 214.595C404.475 215.261 404.526 215.966 404.488 216.647L404.349 220.77L404.393 220.728L387.55 220.149L387.645 220.251L387.841 214.828C387.83 213.892 387.463 212.967 386.847 212.26C386.234 211.524 385.351 211.142 384.627 210.648L383.484 209.929C383.09 209.671 382.658 209.469 382.201 209.349C381.291 209.097 380.288 209.162 379.417 209.552L374.607 212.078L374.942 212.179L367.076 197.267L366.927 197.759L371.739 195.209C372.59 194.686 373.242 193.855 373.564 192.915C373.731 192.445 373.811 191.949 373.821 191.454L373.873 190.11L373.93 188.767C373.961 188.27 373.917 187.764 373.782 187.281C373.526 186.312 372.924 185.424 372.092 184.845L367.478 181.954L367.631 182.609L376.554 168.311L375.837 168.479L380.472 171.357C381.376 171.849 382.453 172.005 383.458 171.801C383.96 171.701 384.443 171.511 384.884 171.25L386.04 170.586L387.23 169.984C387.687 169.759 388.11 169.461 388.469 169.098C389.189 168.373 389.648 167.394 389.738 166.375L389.897 160.921L389.391 161.398L406.238 161.867L405.814 161.416L405.689 166.865C405.728 167.859 406.114 168.833 406.773 169.578C407.103 169.949 407.497 170.262 407.932 170.5L409.073 171.196L410.214 171.891C410.622 172.169 411.077 172.375 411.553 172.501C412.508 172.745 413.537 172.644 414.425 172.234L419.21 169.636L418.82 169.518L426.891 184.321L426.961 184.088L422.2 186.695C421.409 187.196 420.812 187.979 420.522 188.862C420.207 189.754 420.324 190.697 420.268 191.58C420.279 192.466 420.116 193.4 420.378 194.3C420.617 195.189 421.168 195.994 421.926 196.521L426.539 199.372L426.519 199.291L417.674 213.637L417.693 213.633L413.297 210.918ZM413.297 210.918L417.679 213.653L417.691 213.661L417.699 213.649L426.621 199.351L426.652 199.3L426.602 199.268L422.011 196.397C421.286 195.886 420.76 195.111 420.535 194.255C420.286 193.397 420.46 192.494 420.462 191.584C420.53 190.676 420.431 189.763 420.741 188.935C421.026 188.104 421.598 187.378 422.341 186.921L427.122 184.389L427.273 184.31L427.193 184.157L419.328 169.244L419.195 168.991L418.938 169.126L414.156 171.639C413.396 171.978 412.525 172.049 411.728 171.833C411.331 171.723 410.955 171.545 410.619 171.31L409.454 170.578L408.29 169.846C407.935 169.645 407.615 169.383 407.347 169.076C406.816 168.456 406.509 167.651 406.488 166.837L406.688 161.443L406.704 161.006L406.264 160.991L389.421 160.414L388.93 160.396L388.913 160.89L388.727 166.28C388.653 167.064 388.297 167.815 387.739 168.372C387.461 168.651 387.133 168.878 386.779 169.05L385.546 169.666L384.347 170.346C384.007 170.543 383.637 170.688 383.252 170.762C382.482 170.913 381.667 170.788 380.981 170.413L376.384 167.591L375.94 167.318L375.668 167.759L366.822 182.106L366.573 182.51L366.976 182.76L371.563 185.598C372.217 186.049 372.696 186.742 372.906 187.518C373.015 187.904 373.055 188.31 373.037 188.714L372.997 190.079L372.963 191.444C372.961 191.851 372.901 192.258 372.769 192.642C372.516 193.415 371.998 194.093 371.313 194.528L366.582 197.117L366.261 197.293L366.433 197.609L374.503 212.411L374.622 212.63L374.839 212.512L379.589 209.933C380.364 209.574 381.267 209.499 382.101 209.717C382.943 209.912 383.64 210.489 384.442 210.941C385.212 211.445 386.048 211.794 386.612 212.462C387.191 213.109 387.543 213.96 387.567 214.832L387.445 220.243L387.443 220.342L387.54 220.345L404.387 220.814L404.432 220.815L404.433 220.772L404.55 216.648C404.584 215.963 404.53 215.264 404.742 214.61C404.938 213.955 405.314 213.358 405.81 212.888C406.297 212.396 406.94 212.123 407.55 211.81C408.173 211.516 408.75 211.137 409.354 210.811C410.573 210.17 412.123 210.181 413.297 210.918Z" fill="#EBEBEB"/>
<path d="M409.825 185.957C408.526 182.594 405.952 179.678 402.612 178.197C399.322 176.678 395.402 176.401 391.931 177.686C388.485 178.94 385.442 181.542 383.915 184.972C382.339 188.36 382.176 192.379 383.49 195.908C384.879 199.381 387.588 202.356 391.04 203.829C394.465 205.309 398.459 205.392 401.877 203.989C403.572 203.279 405.157 202.297 406.469 201.019C407.791 199.751 408.829 198.212 409.548 196.544C411.04 193.225 411.136 189.33 409.825 185.957ZM409.825 185.957C411.086 189.348 410.929 193.22 409.405 196.48C407.931 199.784 405.003 202.274 401.686 203.487C398.348 204.721 394.579 204.455 391.417 202.993C388.203 201.567 385.742 198.762 384.488 195.525C383.23 192.289 383.317 188.543 384.748 185.347C386.086 182.098 388.838 179.516 392.12 178.185C395.406 176.835 399.249 176.921 402.547 178.339C405.872 179.756 408.478 182.611 409.825 185.957Z" fill="#EBEBEB"/>
<path d="M19.5337 198.45L25.4342 188.224L28.5633 190.032C29.4836 190.565 30.6159 190.513 31.5061 189.933C31.9978 189.611 32.5088 189.317 33.0348 189.049C33.9796 188.569 34.587 187.614 34.587 186.554V182.939H46.3977V186.554C46.3977 187.614 47.005 188.569 47.9499 189.049C48.477 189.317 48.9869 189.611 49.4786 189.933C50.3688 190.513 51.5011 190.565 52.4213 190.032L55.5516 188.224L61.452 198.45L58.3079 200.261C57.3866 200.791 56.8789 201.803 56.9335 202.865C56.9485 203.153 56.956 203.443 56.956 203.734C56.956 204.024 56.9485 204.314 56.9335 204.602C56.8789 205.66 57.3834 206.667 58.3004 207.196L61.4531 209.017L55.5526 219.244L52.4139 217.435C51.4926 216.904 50.3602 216.956 49.47 217.538C48.9805 217.858 48.4716 218.153 47.9478 218.42C47.004 218.901 46.3977 219.854 46.3977 220.913V224.529H34.587V220.913C34.587 219.854 33.9807 218.901 33.0369 218.42C32.5131 218.153 32.0042 217.858 31.5147 217.538C30.6245 216.956 29.4921 216.904 28.5708 217.435L25.4321 219.244L19.5316 209.017L22.6714 207.206C23.5895 206.675 24.0951 205.667 24.0416 204.609C24.0266 204.32 24.0191 204.027 24.0191 203.734C24.0191 203.442 24.0266 203.153 24.0416 202.865C24.0962 201.802 23.5895 200.791 22.6671 200.258L19.5337 198.45ZM30.8226 203.734C30.8226 209.075 35.1484 213.401 40.4897 213.401C45.831 213.401 50.1663 209.075 50.1663 203.734C50.1663 198.392 45.831 194.057 40.4897 194.057C35.1494 194.058 30.8226 198.392 30.8226 203.734Z" fill="#EBEBEB"/>
<path d="M327.409 107.724L333.309 97.4974L336.438 99.3057C337.359 99.8381 338.491 99.7867 339.381 99.2061C339.873 98.8847 340.384 98.5901 340.91 98.3223C341.855 97.8424 342.462 96.8879 342.462 95.8273V92.2129H354.273V95.8273C354.273 96.8879 354.88 97.8424 355.825 98.3223C356.352 98.5901 356.862 98.8847 357.354 99.2061C358.244 99.7867 359.376 99.8381 360.296 99.3057L363.427 97.4974L369.327 107.724L366.183 109.534C365.262 110.065 364.754 111.077 364.808 112.138C364.823 112.426 364.831 112.717 364.831 113.007C364.831 113.297 364.823 113.588 364.808 113.876C364.755 114.933 365.258 115.94 366.175 116.469L369.328 118.291L363.428 128.518L360.289 126.708C359.368 126.177 358.235 126.23 357.345 126.811C356.854 127.132 356.347 127.426 355.823 127.693C354.879 128.174 354.273 129.127 354.273 130.187V133.802H342.462V130.187C342.462 129.127 341.856 128.174 340.912 127.693C340.388 127.426 339.879 127.132 339.39 126.811C338.499 126.23 337.367 126.177 336.446 126.708L333.307 128.518L327.407 118.291L330.546 116.479C331.464 115.949 331.97 114.941 331.917 113.882C331.902 113.593 331.894 113.301 331.894 113.007C331.894 112.716 331.902 112.426 331.917 112.138C331.971 111.076 331.463 110.064 330.542 109.532L327.409 107.724ZM338.698 113.007C338.698 118.348 343.023 122.674 348.365 122.674C353.706 122.674 358.041 118.348 358.041 113.007C358.041 107.666 353.706 103.33 348.365 103.33C343.024 103.331 338.698 107.667 338.698 113.007Z" fill="#EBEBEB"/>
<path d="M75.1173 27.9556H178.344C178.344 27.9556 168.108 0 152.357 0C136.605 0 131.671 19.2955 131.671 19.2955C131.671 19.2955 121.043 8.81217 112.314 8.81217C103.584 8.81217 95.9929 22.6657 95.9929 22.6657C95.9929 22.6657 83.6563 15.2162 75.1173 27.9556Z" fill="#EBEBEB"/>
<path d="M240.921 195.563H344.148C344.148 195.563 333.913 167.607 318.162 167.607C302.41 167.607 297.476 186.903 297.476 186.903C297.476 186.903 286.848 176.42 278.118 176.42C269.389 176.42 261.798 190.273 261.798 190.273C261.798 190.273 249.46 182.824 240.921 195.563Z" fill="#EBEBEB"/>
<path opacity="0.5" d="M11.7981 120.815H60.0391C60.0391 120.815 49.26 105.197 40.7671 105.197C32.2742 105.197 29.7653 115.609 29.7653 115.609C29.7653 115.609 23.7716 110.75 18.2192 111.617C12.6658 112.486 11.7981 120.815 11.7981 120.815Z" fill="#EBEBEB"/>
<path opacity="0.5" d="M145.658 149.841H193.898C193.898 149.841 183.119 134.223 174.627 134.223C166.134 134.223 163.625 144.634 163.625 144.634C163.625 144.634 157.631 139.775 152.079 140.643C146.525 141.512 145.658 149.841 145.658 149.841Z" fill="#EBEBEB"/>
<path d="M358.036 149.535H452C452 149.535 439.132 120.807 425.366 119.011C411.601 117.216 405.018 140.358 405.018 140.358C405.018 140.358 396.14 132.179 389.158 132.179C382.175 132.179 376.789 142.952 376.789 142.952C376.789 142.952 362.824 135.57 358.036 149.535Z" fill="#EBEBEB"/>
<path opacity="0.5" d="M292.534 72.8103H356.008C356.008 72.8103 345.105 51.9969 333.276 51.6937C321.447 51.3905 315.229 67.4455 315.229 67.4455C315.229 67.4455 296.83 52.6792 292.534 72.8103Z" fill="#EBEBEB"/>
<path d="M342.095 344.588H423.32V425.271H342.095V344.588Z" fill="#C8A05C"/>
<path opacity="0.1" d="M399.384 344.588H423.32V425.271H399.384V344.588Z" fill="black"/>
<path d="M236.681 307.463H317.906V425.268H236.681V307.463Z" fill="#C8A05C"/>
<path opacity="0.1" d="M293.97 307.463H317.906V425.268H293.97V307.463Z" fill="black"/>
<path d="M131.259 270.34H212.484V425.268H131.259V270.34Z" fill="#C8A05C"/>
<path opacity="0.1" d="M188.548 270.34H212.484V425.268H188.548V270.34Z" fill="black"/>
<path d="M25.8453 233.219H107.07V425.27H25.8453V233.219Z" fill="#C8A05C"/>
<path opacity="0.1" d="M83.1341 233.219H107.07V425.27H83.1341V233.219Z" fill="black"/>
<path d="M423.445 240.973C421.461 240.972 419.196 240.919 417.041 240.863C414.851 240.788 412.663 240.729 410.462 240.619C406.066 240.434 401.655 240.181 397.244 239.879C388.421 239.308 379.592 238.482 370.772 237.556C353.133 235.643 335.537 233.1 318.05 229.913C300.561 226.727 283.18 222.898 265.957 218.423C248.753 213.884 231.735 208.63 214.951 202.687C198.132 196.816 181.703 189.887 165.563 182.332C149.379 174.844 133.776 166.153 118.589 156.781L107.297 149.578L96.3322 141.88C92.6181 139.383 89.1344 136.588 85.5993 133.852L80.2987 129.741L77.6462 127.684L75.0999 125.503L64.9165 116.752C63.18 115.331 61.617 113.729 59.9855 112.194L55.1284 107.552L50.267 102.906C48.658 101.345 47.1829 99.6554 45.6338 98.0356L36.4317 88.209L35.8232 88.721L44.57 99.0062C46.0473 100.705 47.4507 102.476 48.989 104.118L53.6447 109.016L58.3047 113.917C59.8708 115.538 61.3727 117.229 63.0471 118.74L72.8813 128.044L75.3462 130.368L77.9183 132.569L83.0668 136.972C86.5034 139.905 89.895 142.901 93.5201 145.6L104.239 153.917L115.317 161.754C130.239 171.98 145.665 181.564 161.733 189.955C177.756 198.414 194.145 206.266 210.97 213.059C227.763 219.926 244.847 226.109 262.166 231.576C279.502 236.979 297.046 241.734 314.751 245.843C332.456 249.952 350.319 253.414 368.309 256.24C377.309 257.622 386.332 258.903 395.408 259.93C399.945 260.459 404.49 260.939 409.06 261.351C411.339 261.574 413.639 261.748 415.933 261.936C418.265 262.106 420.488 262.269 422.994 262.391L423.445 240.973Z" fill="#C8A05C"/>
<path d="M33.0786 100.984L38.3481 91.0939L49.125 88.0204L25.7373 75.4824L33.0786 100.984Z" fill="#C8A05C"/>
<path d="M59.1137 227.151H74.4584C74.4584 227.151 75.6486 223.696 71.2061 210.371C66.7636 197.045 64.0501 184.459 69.972 171.38C75.895 158.301 79.759 142.055 73.3604 125.658C66.1369 107.144 64.139 107.411 73.5457 81.0728C74.3684 78.7696 73.5918 78.6754 72.4401 80.1558C71.2885 81.6363 64.3789 99.0753 63.5562 103.846C63.5562 103.846 56.8105 92.6585 54.3434 92.4946C51.8752 92.3296 52.7279 92.7678 54.3434 94.6328C65.9098 107.989 72.2752 129.675 72.6051 140.368C72.934 151.061 67.341 162.577 67.341 162.577C67.341 162.577 59.7736 151.061 54.8372 146.29C49.9019 141.519 46.611 134.28 49.2442 127.864C51.8763 121.449 40.9655 130.99 48.3133 141.52C48.3133 141.52 37.2343 139.381 34.6022 143.823C31.9702 148.264 41.8407 138.559 51.5474 147.278C61.2541 155.997 64.215 166.361 64.215 166.361C64.215 166.361 54.7622 187.877 57.7993 199.923C62.7335 219.501 59.1137 227.151 59.1137 227.151Z" fill="#C8A05C"/>
<path opacity="0.5" d="M59.1137 227.151H74.4584C74.4584 227.151 75.6486 223.696 71.2061 210.371C66.7636 197.045 64.0501 184.459 69.972 171.38C75.895 158.301 79.759 142.055 73.3604 125.658C66.1369 107.144 64.139 107.411 73.5457 81.0728C74.3684 78.7696 73.5918 78.6754 72.4401 80.1558C71.2885 81.6363 64.3789 99.0753 63.5562 103.846C63.5562 103.846 56.8105 92.6585 54.3434 92.4946C51.8752 92.3296 52.7279 92.7678 54.3434 94.6328C65.9098 107.989 72.2752 129.675 72.6051 140.368C72.934 151.061 67.341 162.577 67.341 162.577C67.341 162.577 59.7736 151.061 54.8372 146.29C49.9019 141.519 46.611 134.28 49.2442 127.864C51.8763 121.449 40.9655 130.99 48.3133 141.52C48.3133 141.52 37.2343 139.381 34.6022 143.823C31.9702 148.264 41.8407 138.559 51.5474 147.278C61.2541 155.997 64.215 166.361 64.215 166.361C64.215 166.361 54.7622 187.877 57.7993 199.923C62.7335 219.501 59.1137 227.151 59.1137 227.151Z" fill="black"/>
<path d="M62.1094 163.685C62.1094 163.685 48.3394 159.879 40.8717 173.362C40.8717 173.362 54.9105 175.937 62.1094 163.685Z" fill="#37474F"/>
<path d="M95.875 89.9534C95.875 89.9534 83.2524 83.2613 73.0486 94.8127C73.0486 94.8127 86.1994 100.361 95.875 89.9534Z" fill="#37474F"/>
<path d="M58.6094 159.97C58.6094 159.97 51.7576 152.867 42.5769 158.26C42.5769 158.26 50.0211 164.727 58.6094 159.97Z" fill="#37474F"/>
<path d="M64.8203 91.0016C64.8203 91.0016 63.7405 81.191 53.1779 79.8477C53.1779 79.8477 55.1169 89.5158 64.8203 91.0016Z" fill="#37474F"/>
<path d="M92.6641 124.598C92.6641 124.598 83.0035 122.572 78.442 132.193C78.442 132.193 88.2344 133.359 92.6641 124.598Z" fill="#37474F"/>
<path d="M84.25 191.406L83.3802 201.731L80.7138 233.217H52.1519L49.4844 201.731L48.6146 191.406H84.25Z" fill="#455A64"/>
<path d="M84.25 191.406L83.3802 201.731H49.4844L48.6146 191.406H84.25Z" fill="#263238"/>
<path d="M87.0538 197.17H45.8125V187.265H87.0538V197.17Z" fill="#455A64"/>
<path d="M180.371 261.498H162.632C162.632 261.498 173.955 245.719 176.516 237.258C180.306 224.735 173.689 212.627 164.677 205.935C160.586 202.897 156.383 207.343 150.458 205.908C143.164 204.143 143.328 198.042 143.615 197.437C143.902 196.831 144.928 202.766 148.42 203.937C156.431 206.625 159.153 200.556 166.329 203.01C166.329 203.01 165.884 199.575 166.215 195.334C166.546 191.092 162.07 178.574 150.128 179.853C148.585 180.018 149.521 178.972 152.331 178.751C155.141 178.53 158.116 179.798 158.116 179.798C158.116 179.798 155.637 177.043 155.362 173.572C155.086 170.102 152.993 167.953 153.213 167.402C153.433 166.851 155.196 168.063 155.967 171.699C155.967 171.699 157.73 177.373 159.824 179.191C161.917 181.009 166.255 186.037 167.358 190.94C167.358 190.94 167.669 187.859 168.198 181.946C168.584 177.614 171.227 174.123 171.889 174.398C172.55 174.674 169.355 178.476 169.19 182.552C169.025 186.628 169.806 191.035 169.004 194.42C167.723 199.833 169.079 205.744 171.668 208.719C174.258 211.694 180.979 217.77 181.309 228.679C181.639 239.588 177.617 256.981 180.371 261.498Z" fill="#C8A05C"/>
<g opacity="0.5">
<path d="M180.371 261.498H162.632C162.632 261.498 173.955 245.719 176.516 237.258C180.306 224.735 173.689 212.627 164.677 205.935C160.586 202.897 156.383 207.343 150.458 205.908C143.164 204.143 143.328 198.042 143.615 197.437C143.902 196.831 144.928 202.766 148.42 203.937C156.431 206.625 159.153 200.556 166.329 203.01C166.329 203.01 165.884 199.575 166.215 195.334C166.546 191.092 162.07 178.574 150.128 179.853C148.585 180.018 149.521 178.972 152.331 178.751C155.141 178.53 158.116 179.798 158.116 179.798C158.116 179.798 155.637 177.043 155.362 173.572C155.086 170.102 152.993 167.953 153.213 167.402C153.433 166.851 155.196 168.063 155.967 171.699C155.967 171.699 157.73 177.373 159.824 179.191C161.917 181.009 166.255 186.037 167.358 190.94C167.358 190.94 167.669 187.859 168.198 181.946C168.584 177.614 171.227 174.123 171.889 174.398C172.55 174.674 169.355 178.476 169.19 182.552C169.025 186.628 169.806 191.035 169.004 194.42C167.723 199.833 169.079 205.744 171.668 208.719C174.258 211.694 180.979 217.77 181.309 228.679C181.639 239.588 177.617 256.981 180.371 261.498Z" fill="black"/>
</g>
<path d="M169.662 201.152C169.662 201.152 181.855 203.11 186.984 190.815C186.984 190.815 174.679 189.941 169.662 201.152Z" fill="#37474F"/>
<path d="M170.408 203.998C170.408 203.998 174.951 211.218 183.672 208.274C183.672 208.274 178.514 201.489 170.408 203.998Z" fill="#37474F"/>
<path d="M132.757 210.426C132.757 210.426 140.996 212.641 145.398 204.559C145.398 204.559 137.004 203.08 132.757 210.426Z" fill="#37474F"/>
<path d="M158.461 175.595C158.461 175.595 166.897 174.327 167.695 165.158C167.695 165.158 159.411 167.163 158.461 175.595Z" fill="#37474F"/>
<path d="M188.211 228.676L187.341 239.001L184.675 270.487H156.112L153.445 239.001L152.576 228.676H188.211Z" fill="#455A64"/>
<path d="M188.211 228.676L187.341 239.001H153.445L152.576 228.676H188.211Z" fill="#263238"/>
<path d="M191.015 234.439H149.773V224.535H191.015V234.439Z" fill="#455A64"/>
<path d="M289.615 295.826H275.241C275.241 295.826 284.415 283.04 286.49 276.184C289.562 266.036 284.199 256.225 276.897 250.802C273.583 248.34 270.176 251.943 265.375 250.781C259.465 249.351 259.599 244.407 259.83 243.916C260.063 243.426 260.894 248.234 263.723 249.184C270.214 251.361 272.421 246.444 278.235 248.432C278.235 248.432 278.419 245.648 278.142 242.212C277.555 234.905 271.58 229.623 271.58 229.623C271.58 229.623 269.571 227.391 269.347 224.579C269.124 221.767 267.427 220.025 267.606 219.579C267.785 219.133 269.213 220.115 269.839 223.061C269.839 223.061 271.267 227.659 272.964 229.132C274.659 230.605 278.175 234.679 279.069 238.652C279.069 238.652 280.464 250.649 282.562 253.06C284.661 255.471 290.106 260.395 290.375 269.234C290.643 278.072 287.384 292.166 289.615 295.826Z" fill="#C8A05C"/>
<g opacity="0.5">
<path d="M289.615 295.826H275.241C275.241 295.826 284.415 283.04 286.49 276.184C289.562 266.036 284.199 256.225 276.897 250.802C273.583 248.34 270.176 251.943 265.375 250.781C259.465 249.351 259.599 244.407 259.83 243.916C260.063 243.426 260.894 248.234 263.723 249.184C270.214 251.361 272.421 246.444 278.235 248.432C278.235 248.432 278.419 245.648 278.142 242.212C277.555 234.905 271.58 229.623 271.58 229.623C271.58 229.623 269.571 227.391 269.347 224.579C269.124 221.767 267.427 220.025 267.606 219.579C267.785 219.133 269.213 220.115 269.839 223.061C269.839 223.061 271.267 227.659 272.964 229.132C274.659 230.605 278.175 234.679 279.069 238.652C279.069 238.652 280.464 250.649 282.562 253.06C284.661 255.471 290.106 260.395 290.375 269.234C290.643 278.072 287.384 292.166 289.615 295.826Z" fill="black"/>
</g>
<path d="M280.662 242.371C280.662 242.371 289.194 242.369 291.344 233.42C291.344 233.42 282.854 234.174 280.662 242.371Z" fill="#37474F"/>
<path d="M247.83 237.924C247.83 237.924 250.586 245.999 259.75 245.145C259.75 245.145 256.296 237.353 247.83 237.924Z" fill="#37474F"/>
<path d="M268.841 219.799C268.841 219.799 276.593 216.237 274.812 207.207C274.812 207.207 267.412 211.434 268.841 219.799Z" fill="#37474F"/>
<path d="M300.984 265.652L300.115 275.976L297.448 307.464H268.886L266.219 275.976L265.349 265.652H300.984Z" fill="#455A64"/>
<path d="M300.984 265.652L300.115 275.976H266.219L265.349 265.652H300.984Z" fill="#263238"/>
<path d="M303.788 271.414H262.547V261.509H303.788V271.414Z" fill="#455A64"/>
<path d="M387.263 319.793H375.902C375.902 319.793 383.153 309.687 384.793 304.269C387.221 296.248 382.038 287.313 377.627 284.524C374.868 282.78 371.9 285.109 368.104 284.191C363.433 283.061 363.538 279.153 363.722 278.765C363.905 278.377 364.563 282.178 366.798 282.929C371.929 284.651 373.673 280.764 378.268 282.335C378.268 282.335 378.096 276.145 382.882 273.282C383.737 272.771 380.912 275.72 380.16 279.195C379.572 281.914 380.02 284.028 381.688 285.992C383.324 287.917 387.65 291.788 387.862 298.775C388.075 305.761 385.499 316.9 387.263 319.793Z" fill="#C8A05C"/>
<g opacity="0.5">
<path d="M387.263 319.793H375.902C375.902 319.793 383.153 309.687 384.793 304.269C387.221 296.248 382.038 287.313 377.627 284.524C374.868 282.78 371.9 285.109 368.104 284.191C363.433 283.061 363.538 279.153 363.722 278.765C363.905 278.377 364.563 282.178 366.798 282.929C371.929 284.651 373.673 280.764 378.268 282.335C378.268 282.335 378.096 276.145 382.882 273.282C383.737 272.771 380.912 275.72 380.16 279.195C379.572 281.914 380.02 284.028 381.688 285.992C383.324 287.917 387.65 291.788 387.862 298.775C388.075 305.761 385.499 316.9 387.263 319.793Z" fill="black"/>
</g>
<path d="M400.5 302.773L399.63 313.098L396.964 344.585H368.401L365.734 313.098L364.865 302.773H400.5Z" fill="#455A64"/>
<path d="M400.5 302.773L399.63 313.098H365.734L364.865 302.773H400.5Z" fill="#263238"/>
<path d="M403.304 308.537H362.062V298.632H403.304V308.537Z" fill="#455A64"/>
<path d="M449.148 425.265L393.005 425.005L336.862 424.91L224.576 424.73L112.29 424.909L56.1476 425.004L0.00396729 425.265L56.1476 425.528L112.29 425.622L224.576 425.8L336.862 425.621L393.005 425.525L449.148 425.265Z" fill="#263238"/>
<path d="M210.176 49.0714C210.175 49.1774 210.015 49.1656 210.012 49.0617C209.865 44 204.883 40.632 205.051 35.4792C205.125 33.2167 206.033 31.0249 207.302 29.177C208.144 27.9494 209.188 26.8899 210.18 25.7876C210.317 25.6012 210.453 25.4148 210.587 25.2294C211.443 24.0478 212.288 22.8416 212.92 21.5229C213.65 19.9995 213.964 18.3819 214.135 16.7161C214.458 13.5463 214.57 10.3186 216.786 7.80648C218.637 5.71003 221.309 4.48772 223.988 3.83532C230.051 2.35913 237.267 3.42396 241.284 8.61849C241.996 9.54192 242.555 10.5489 242.952 11.6373C242.952 11.6373 246.482 14.2051 247.547 18.338C248.484 21.976 246.053 24.9595 246.277 26.7742C246.474 28.3736 247.45 29.7416 248.098 31.1846C248.765 32.4144 249.426 33.6517 249.896 34.9586C250.555 36.7905 250.488 38.7466 250.034 40.6191C249.626 42.2989 248.917 43.9422 247.759 45.2438C246.64 46.5003 245.171 47.2299 243.579 47.7034C243.198 47.8169 242.816 47.9198 242.435 48.0205C242.425 48.0258 242.415 48.0322 242.405 48.0376C241.068 48.7736 239.62 49.3188 238.348 50.1683C236.907 51.1346 236.01 52.4812 235.529 54.1373C235.092 55.635 234.948 57.199 234.611 58.7191C234.297 60.1428 233.768 61.4851 232.942 62.6892C231.321 65.0556 228.847 66.7332 226.135 67.6095C222.972 68.6304 219.511 68.6004 216.272 67.9598C213.352 67.3867 210.597 66.1172 208.96 63.5301C207.552 61.3094 207.099 58.4599 207.864 55.9306C208.329 54.3923 209.269 53.065 210.009 51.6563C210.755 50.2283 211.167 48.7307 210.956 47.1152C210.281 41.8982 205.253 37.8628 206.58 32.2772C206.921 30.8428 207.602 29.5412 208.401 28.3061C206.909 30.1294 205.778 32.2997 205.474 34.6544C205.134 37.2811 206.094 39.595 207.383 41.8275C208.676 44.0664 210.214 46.3836 210.176 49.0714ZM243.332 47.5063C245.554 46.8035 247.382 45.5994 248.536 43.5308C249.718 41.4151 250.36 38.6844 249.957 36.2805C249.756 35.0807 249.237 33.9763 248.723 32.8846C248.709 32.8547 248.695 32.8246 248.681 32.7947C248.895 33.5563 249.036 34.3373 249.101 35.1268C249.311 37.6539 248.789 40.2249 247.66 42.4917C246.642 44.5324 245.132 46.2872 243.235 47.5362C243.267 47.5266 243.3 47.517 243.332 47.5063Z" fill="#263238"/>
<path d="M231.837 50.2877C227.639 71.4408 216.944 89.9972 210.67 91.4326C201.668 93.4927 177.658 90.747 166.751 87.5172C163.546 86.5681 171.434 61.7759 174.861 62.7872C179.003 64.0084 203.048 69.6165 203.482 69.609C204.411 69.5929 218.861 50.3959 222.321 45.4296C228.667 36.3207 234.121 38.7835 231.837 50.2877Z" fill="#F7A9A0"/>
<path d="M153.301 83.5352C157.858 86.2991 169.389 88.3066 172.357 87.7217C175.326 87.1357 179.39 67.6452 177.374 65.2842C175.358 62.9231 159.293 54.8051 153.901 55.51C148.508 56.2149 148.58 80.6717 153.301 83.5352Z" fill="#F7A9A0"/>
<path d="M99.8206 66.4805L101.883 76.0157L93.7894 80.9275L99.8206 66.4805Z" fill="#37474F"/>
<path d="M122.376 82.218L128.414 94.666L99.5158 77.4755L101.491 74.3496L122.376 82.218Z" fill="#455A64"/>
<path d="M141.405 68.8C141.405 68.8 146.374 50.8393 151.201 49.7659C156.037 48.6882 165.45 77.354 156.575 86.3301C153.736 89.215 148.073 88.1116 148.073 88.1116L141.405 68.8ZM154.951 83.9487C161.862 76.9598 154.783 52.9958 151.023 53.8292C147.263 54.6637 143.144 70.2987 143.144 70.2987L148.335 85.3338C148.335 85.3338 152.74 86.1919 154.951 83.9487Z" fill="#455A64"/>
<path d="M121.11 102.798L153.008 96.8189L138.957 50.5684L118.525 54.5834L121.11 102.798Z" fill="#37474F"/>
<path d="M138.96 50.5682L141.586 46.5156L115.372 51.1402L118.528 54.5833L138.96 50.5682Z" fill="#455A64"/>
<path d="M95.8984 68.2277C95.8984 68.2277 93.1164 64.5104 92.2015 66.0938C91.2878 67.6781 95.8984 68.2277 95.8984 68.2277Z" fill="#455A64"/>
<path d="M94.9609 74.1729C94.9609 74.1729 91.5929 70.9763 90.9587 72.6913C90.3235 74.4075 94.9609 74.1729 94.9609 74.1729Z" fill="#455A64"/>
<path d="M89.4766 70.162C89.4766 70.162 85.2601 68.2166 85.2108 70.0452C85.1604 71.8739 89.4766 70.162 89.4766 70.162Z" fill="#455A64"/>
<path d="M87.125 74.7662C87.125 74.7662 82.7596 73.185 82.8635 75.0115C82.9685 76.8369 87.125 74.7662 87.125 74.7662Z" fill="#455A64"/>
<path d="M87.2422 66.2371C87.2422 66.2371 83.4478 63.5611 83.0675 65.3511C82.6872 67.1401 87.2422 66.2371 87.2422 66.2371Z" fill="#455A64"/>
<path d="M82 69.9802C82 69.9802 77.5672 68.5994 77.7546 70.4194C77.9421 72.2384 82 69.9802 82 69.9802Z" fill="#455A64"/>
<path d="M92.8359 80.4922C92.8359 80.4922 88.2424 81.1735 89.2022 82.7311C90.161 84.2877 92.8359 80.4922 92.8359 80.4922Z" fill="#455A64"/>
<path d="M83.0547 88.2031C83.0547 88.2031 79.5538 91.253 81.2003 92.0468C82.8479 92.8417 83.0547 88.2031 83.0547 88.2031Z" fill="#455A64"/>
<path d="M88.2891 85.2832C88.2891 85.2832 84.2665 87.6025 85.7299 88.6984C87.1943 89.7953 88.2891 85.2832 88.2891 85.2832Z" fill="#455A64"/>
<path d="M91.1719 77.9051C91.1719 77.9051 86.5901 77.151 87.0282 78.9271C87.4664 80.7033 91.1719 77.9051 91.1719 77.9051Z" fill="#455A64"/>
<path d="M85.2891 81.6074C85.2891 81.6074 80.958 83.2818 82.236 84.5898C83.5151 85.8978 85.2891 81.6074 85.2891 81.6074Z" fill="#455A64"/>
<path d="M162.403 56.0882C163.711 58.5907 160.013 58.6999 160.013 58.6999C160.013 58.6999 165.375 59.8258 165.725 62.9271C166.055 65.917 161.584 65.8924 161.263 65.8945C161.545 65.9566 166.445 67.119 166.476 70.2728C166.506 73.5497 162.022 72.7538 161.732 72.7013C161.98 72.8438 165.24 74.7827 164.72 77.1845C163.823 81.3099 155.351 76.5803 152.105 77.6494C152.105 77.6494 153.289 83.3582 153.289 83.5317C153.289 83.5317 145.138 79.1963 143.94 74.7367C143.308 72.3853 145.376 71.3333 145.376 71.3333C145.376 71.3333 142.593 70.2256 142.49 67.7446C142.441 66.4709 144.434 65.2571 144.434 65.2571C144.434 65.2571 142.243 64.2769 142.288 62.0637C142.32 60.2972 144.314 59.3556 144.314 59.3556C144.314 59.3556 142.647 57.4391 143.264 55.6447C144.504 52.0228 159.598 50.7319 162.403 56.0882Z" fill="#F7A9A0"/>
<path d="M144.604 59.1559C144.554 59.1645 144.532 59.0959 144.581 59.0788C149.441 57.443 155.283 57.1344 160.208 58.6695C160.369 58.7199 160.358 59.0038 160.169 58.9824C154.791 58.3717 149.968 58.2582 144.604 59.1559Z" fill="#263238"/>
<path d="M144.353 65.2307C144.295 65.2403 144.278 65.1439 144.338 65.1246C149.354 63.4663 155.944 63.3003 161.411 65.7374C161.599 65.8209 161.683 66.0845 161.461 66.0041C157.701 64.6586 149.177 64.3972 144.353 65.2307Z" fill="#263238"/>
<path d="M162.052 73.0011C156.718 70.8661 151.236 70.6561 145.575 71.2496C145.501 71.2571 145.498 71.1521 145.558 71.1285C148.248 70.084 151.896 70.0819 154.735 70.3197C157.454 70.5479 159.861 71.301 162.127 72.8136C162.215 72.8736 162.165 73.0471 162.052 73.0011Z" fill="#263238"/>
<path d="M160.015 58.6992C161.025 59.0163 162.01 59.4105 162.934 59.9012C163.842 60.395 164.739 61.0163 165.232 61.8594C165.472 62.2761 165.573 62.7475 165.476 63.2006C165.374 63.6613 165.171 64.1166 164.859 64.4583C164.246 65.1589 163.205 65.4406 162.285 65.4235L159.97 65.3796L162.13 66.2259C163.072 66.5955 164.015 67.1172 164.782 67.7696C165.548 68.4187 166.139 69.2693 166.148 70.1799C166.176 71.1312 165.679 71.9271 164.779 72.1949C163.901 72.497 162.808 72.4488 161.846 72.2539L159.157 71.7107L161.51 73.0969C162.148 73.4729 162.782 73.955 163.307 74.4885C163.827 75.0241 164.266 75.6519 164.378 76.3139C164.492 76.962 164.251 77.6798 163.729 78.0333C163.186 78.4125 162.388 78.5025 161.625 78.5121C160.066 78.5132 158.487 78.179 156.905 77.9272C156.113 77.7944 155.317 77.6594 154.516 77.5641C153.721 77.4827 152.882 77.3895 152.11 77.6487C152.9 77.472 153.701 77.653 154.482 77.7837C155.265 77.939 156.043 78.1318 156.823 78.3257C158.381 78.7114 159.955 79.0831 161.613 79.1753C162.434 79.1924 163.326 79.1817 164.154 78.6814C165.005 78.1586 165.364 77.1013 165.209 76.1811C165.056 75.2427 164.516 74.4981 163.941 73.88C163.346 73.2619 162.7 72.752 161.963 72.301L161.628 73.1441C162.764 73.383 163.907 73.4772 165.094 73.1087C165.676 72.9245 166.258 72.5313 166.612 71.9678C166.969 71.4033 167.094 70.7723 167.077 70.151C167.033 68.858 166.215 67.8092 165.349 67.099C164.455 66.3694 163.475 65.8477 162.405 65.446L162.249 66.2484C163.42 66.2302 164.598 65.8274 165.37 64.8868C165.746 64.4197 165.956 63.867 166.052 63.2917C166.15 62.6993 165.981 62.0747 165.669 61.5948C165.021 60.6253 164.022 60.0951 163.061 59.6484C162.079 59.2145 161.055 58.9038 160.015 58.6992Z" fill="#263238"/>
<path d="M174.883 63.4174C174.883 63.4174 161.725 45.0271 157.057 53.6915C155.67 56.2668 153.046 68.4963 155.493 69.0705C158.651 69.8118 160.699 64.9118 161.496 61.6317C161.496 61.6317 165.091 68.5166 170.632 67.4432C174.106 66.7705 174.883 63.4174 174.883 63.4174Z" fill="#F7A9A0"/>
<path d="M157.495 52.9961C156.793 53.912 156.352 54.9993 155.947 56.0749C155.544 57.1579 155.246 58.2763 154.993 59.4012C154.515 61.6637 154.109 63.9144 154.027 66.269C154.015 66.8603 154.028 67.4613 154.195 68.0998C154.279 68.4147 154.42 68.7565 154.66 69.0414C154.777 69.186 154.895 69.2996 155.092 69.4281C155.27 69.531 155.446 69.606 155.624 69.6424C156.338 69.8202 157.037 69.6488 157.622 69.3596C158.2 69.0478 158.673 68.6236 159.083 68.1641C159.894 67.2342 160.435 66.1597 160.866 65.0692C161.309 63.9786 161.614 62.8538 161.889 61.7269L161.142 61.8083C161.589 62.6031 162.098 63.3038 162.667 63.9797C163.233 64.6514 163.864 65.2695 164.557 65.8126C165.254 66.3504 166.027 66.7896 166.847 67.0992C167.664 67.4152 168.537 67.5684 169.398 67.5534C168.544 67.4506 167.717 67.2128 166.957 66.8432C166.194 66.4768 165.51 65.9755 164.88 65.4227C164.25 64.8678 163.682 64.2432 163.177 63.5726C162.675 62.9063 162.214 62.18 161.859 61.4537L161.408 60.5303L161.112 61.5351C160.794 62.6171 160.481 63.7044 160.026 64.7221C159.586 65.7387 159.08 66.7436 158.367 67.532C157.683 68.3044 156.713 68.9268 155.853 68.7147C155.083 68.5947 154.933 67.3467 154.935 66.2743C154.93 65.1645 155.041 64.0311 155.153 62.901C155.267 61.7686 155.397 60.6374 155.583 59.5169C155.998 57.2929 156.405 55.0165 157.495 52.9961Z" fill="#263238"/>
<path d="M193.095 66.9042L191.36 93.1179C191.36 93.1179 208.628 95.4479 213.395 91.4885C218.162 87.5302 229.163 68.1083 231.851 52.7261C234.538 37.3439 228.996 34.9978 219.984 48.0575C210.972 61.1173 203.79 69.1538 203.357 69.1313C202.922 69.1099 193.095 66.9042 193.095 66.9042Z" fill="#C8A05C"/>
<path d="M197.744 69.0037C197.754 68.9191 197.893 68.9298 197.894 69.0144C197.949 76.7189 197.453 84.4523 196.669 92.1139C196.66 92.1986 196.519 92.1879 196.519 92.1032C196.549 84.4019 196.876 76.6589 197.744 69.0037Z" fill="#263238"/>
<path opacity="0.1" d="M205.533 93.6741C208.813 93.4373 211.795 92.8128 213.393 91.4866C218.157 87.5261 229.161 68.1128 231.848 52.7209C233.794 41.6023 231.442 37.2991 226.583 40.7003L205.533 93.6741Z" fill="black"/>
<path d="M246.97 310.053C249.028 310.291 303.995 298.576 305.802 296.8C306.501 296.137 305.261 288.027 303.481 278.272C303.461 278.171 303.441 278.069 303.422 277.967C303.06 275.956 293.38 242.314 293.38 242.314L257.552 250.754L267.875 285.131L268.018 285.729C268.018 285.729 248.984 299.625 247.2 301.788C245.433 303.94 244.913 309.824 246.97 310.053Z" fill="#F7A9A0"/>
<path d="M304.345 283.125C305.629 290.6 306.384 296.251 305.799 296.802C303.99 298.58 249.026 310.295 246.966 310.055C244.907 309.824 245.429 303.943 247.2 301.787C248.285 300.473 255.776 294.8 261.468 290.56C257.654 293.647 252.169 301.033 275.695 293.474C290.211 288.809 299.281 285.273 304.345 283.125Z" fill="#263238"/>
<path d="M226.157 84.7461C226.157 84.7461 223.087 111.022 228.51 117.007C228.51 117.007 236.849 176.545 240.284 193.977C244.818 216.988 263.146 275.579 263.146 275.579L302.344 266.097C302.344 266.097 277.581 191.461 277.389 189.961C276.296 181.451 269.885 122.392 270.401 120.934C277.074 102.103 268.18 84.7472 268.18 84.7472H226.157V84.7461Z" fill="#37474F"/>
<path d="M263.865 265.039C269.324 263.53 267.731 263.862 273.212 262.434C275.894 261.736 293.523 257.165 296.171 257.09C296.23 257.089 296.26 257.211 296.207 257.237C293.828 258.404 276.1 262.57 273.401 263.201C267.886 264.49 269.45 264.041 263.917 265.25C263.812 265.272 263.762 265.068 263.865 265.039Z" fill="#263238"/>
<path d="M268.062 258.547L256.194 216.758L253.258 206.303L251.83 201.068C251.343 199.32 250.923 197.583 250.672 195.803C249.616 188.649 248.697 181.464 247.756 174.286L241.984 131.229L240.537 120.464L239.796 115.083C239.66 114.177 239.56 113.313 239.393 112.371C239.302 111.865 239.255 111.547 239.24 111.068L239.192 109.718C239.044 102.486 239.092 95.2415 239.115 88.002C238.962 95.2415 238.782 102.478 238.799 109.726C238.806 110.18 238.807 110.632 238.833 111.09C238.829 111.517 238.932 112.095 238.992 112.48C239.132 113.323 239.241 114.257 239.367 115.142L240.073 120.525L241.452 131.298L246.96 174.391C247.946 181.566 248.909 188.74 250.012 195.906C250.279 197.712 250.722 199.494 251.218 201.231L252.68 206.464L255.683 216.903L261.785 237.751L268.062 258.547Z" fill="#263238"/>
<path d="M228.527 117.008C228.527 117.008 231.805 140.415 235.093 162.161L268.195 84.752H226.17C226.17 84.752 223.106 111.019 228.527 117.008Z" fill="#263238"/>
<path d="M161.378 270.493C163.346 271.139 219.546 270.699 221.674 269.322C222.491 268.813 216.449 218.883 216.449 218.883L180.537 220.432L186.882 250.89C186.882 250.89 165.445 260.68 163.264 262.441C161.1 264.195 159.409 269.855 161.378 270.493Z" fill="#F7A9A0"/>
<path d="M161.372 270.493C162.239 270.777 173.571 270.851 186.191 270.731C187.019 270.72 187.858 270.709 188.697 270.7C190.85 270.684 193.025 270.648 195.179 270.613C196.018 270.594 196.857 270.573 197.686 270.563L197.724 270.566C198.553 270.546 199.383 270.525 200.193 270.512C201.45 270.492 202.68 270.461 203.88 270.427C204.661 270.403 205.432 270.378 206.183 270.362L206.212 270.364C206.964 270.339 207.705 270.312 208.418 270.293L208.447 270.295C209.53 270.263 210.564 270.227 211.551 270.179C212.215 270.157 212.869 270.134 213.495 270.1C214.717 270.048 215.831 269.988 216.82 269.921C217.318 269.897 217.788 269.861 218.219 269.823C219.295 269.742 220.159 269.656 220.75 269.56C221.232 269.486 221.55 269.401 221.672 269.322C221.957 269.148 221.774 263.067 221.425 255.163C216 256.434 206.074 258.425 190.895 260.607C165.938 264.198 173.376 257.486 177.614 255.208C177.654 255.181 177.695 255.165 177.736 255.139C177.474 255.257 177.202 255.384 176.941 255.513C176.9 255.53 176.851 255.546 176.81 255.571C176.327 255.801 175.844 256.03 175.36 256.26C174.836 256.507 174.302 256.762 173.778 257.018C172.902 257.434 172.026 257.851 171.189 258.27C170.344 258.67 169.536 259.071 168.769 259.456C168.315 259.687 167.87 259.91 167.447 260.115C167.235 260.216 167.033 260.33 166.831 260.433C166.559 260.57 166.286 260.707 166.033 260.845C165.468 261.138 164.972 261.404 164.546 261.648C164.446 261.699 164.345 261.75 164.253 261.813C163.796 262.073 163.46 262.294 163.264 262.446C161.098 264.192 159.411 269.85 161.372 270.493Z" fill="#263238"/>
<path d="M182.157 236.903L219.786 237.359C219.786 237.359 210.466 169.122 211.434 165.891C211.814 164.628 257.454 123.232 257.454 123.232C273.824 107.096 268.187 84.7461 268.187 84.7461H226.164C226.164 84.7461 225.6 91.3097 223.39 93.7886C210.751 107.969 178.537 137.301 173.603 150.332C167.41 166.688 182.157 236.903 182.157 236.903Z" fill="#37474F"/>
<path d="M268.069 99.2305C267.924 101.738 267.488 104.215 266.695 106.58C265.947 108.956 264.942 111.245 263.741 113.423C261.336 117.776 258.291 121.772 254.807 125.327C251.382 128.96 247.641 132.308 243.929 135.675C242.068 137.355 240.187 139.016 238.294 140.662L232.624 145.622C234.665 144.155 236.642 142.605 238.631 141.067C240.594 139.5 242.539 137.907 244.471 136.298C248.306 133.046 252.056 129.686 255.579 126.066C259.051 122.394 262.169 118.332 264.464 113.803C266.732 109.294 268.267 104.283 268.069 99.2305Z" fill="#263238"/>
<path d="M235.915 88C235.985 89.6144 235.89 91.2406 235.561 92.8185C235.383 93.5952 235.178 94.4029 234.787 95.0778C234.325 95.7291 233.783 96.3355 233.258 96.9461C231.124 99.3714 228.913 101.732 226.709 104.098L213.471 118.282C209.049 123.002 204.676 127.769 200.323 132.556C195.982 137.354 191.65 142.161 187.51 147.148C186.481 148.402 185.471 149.67 184.507 150.986C184.028 151.647 183.557 152.313 183.136 153.036C182.928 153.383 182.719 153.803 182.606 154.225C182.489 154.634 182.406 155.045 182.341 155.453C181.872 158.727 182.002 161.976 182.126 165.215C182.449 171.692 183.112 178.136 183.908 184.558C185.496 197.403 187.518 210.187 189.789 222.922C188.781 216.533 187.85 210.132 186.976 203.725C186.082 197.321 185.242 190.909 184.521 184.485C183.822 178.061 183.139 171.629 182.855 165.183C182.743 161.97 182.633 158.715 183.097 155.578C183.16 155.189 183.24 154.806 183.347 154.437C183.445 154.078 183.602 153.769 183.808 153.423C184.202 152.75 184.668 152.094 185.139 151.448C186.092 150.159 187.103 148.902 188.129 147.657C196.384 137.727 205.226 128.268 213.923 118.698L226.997 104.36C229.154 101.95 231.317 99.5439 233.407 97.0714C233.922 96.4469 234.449 95.8341 234.91 95.156C235.314 94.4243 235.491 93.6284 235.659 92.8357C235.956 91.2427 236.017 89.6122 235.915 88Z" fill="#263238"/>
<path d="M185.073 227.96C190.333 227.806 188.823 227.745 194.084 227.674C196.659 227.639 213.577 227.431 215.983 227.993C216.037 228.006 216.037 228.133 215.983 228.144C213.577 228.707 196.659 228.499 194.084 228.464C188.823 228.392 190.333 228.332 185.073 228.176C184.975 228.174 184.975 227.963 185.073 227.96Z" fill="#263238"/>
<path d="M223.826 78.1372L225.913 84.7501C225.913 84.7501 254.276 87.7636 268.07 84.7501C268.07 84.7501 258.339 51.0397 242.388 41.7251C234.41 37.0662 227.535 39.709 224.452 45.6256C223.672 47.1232 218.016 61.5124 218.016 67.55C218.016 73.9829 223.826 78.1372 223.826 78.1372Z" fill="#C8A05C"/>
<path d="M229.806 73.2154C232.077 73.4693 234.356 73.8014 236.568 74.3884C237.668 74.6809 238.748 75.0215 239.826 75.3879C240.363 75.57 240.903 75.7339 241.446 75.8946C242.004 76.0596 242.603 76.2149 243.188 76.2385C243.241 76.2406 243.239 76.3188 243.186 76.3199C242.617 76.3306 242.073 76.3392 241.506 76.2738C240.968 76.2117 240.433 76.0917 239.907 75.9578C238.789 75.6718 237.683 75.3344 236.567 75.0376C234.315 74.4377 232.065 73.8389 229.775 73.4029C229.67 73.3836 229.698 73.2036 229.806 73.2154Z" fill="#263238"/>
<path d="M224.159 75.1869C226.03 75.0133 227.938 74.9255 229.818 74.9641C230.764 74.9833 231.701 75.0583 232.641 75.1569C233.09 75.204 233.538 75.2597 233.986 75.3208C234.477 75.3883 234.962 75.5211 235.454 75.5811C235.506 75.5875 235.505 75.6679 235.452 75.6625C234.986 75.6197 234.511 75.655 234.042 75.64C233.572 75.625 233.102 75.6057 232.632 75.5897C231.689 75.5586 230.748 75.5382 229.806 75.4975C227.92 75.4172 226.042 75.3561 224.156 75.3411C224.053 75.3411 224.063 75.1965 224.159 75.1869Z" fill="#263238"/>
<path d="M243.823 42.7263C263.174 54.0742 280.988 68.5887 281.263 75.449C281.632 84.6768 272.532 104.509 266.855 114.367C265.187 117.262 242.908 103.829 244.688 100.731C246.838 96.9867 258.273 77.7918 258.367 77.3687C258.567 76.4613 243.581 55.4497 239.879 50.5165C233.696 42.2764 235.235 37.6904 243.823 42.7263Z" fill="#F7A9A0"/>
<path d="M228.417 128.492C230.092 130.696 232.789 129.726 232.789 129.726C232.789 129.726 232.928 131.932 234.502 133.358C236.304 134.992 239.656 132.882 239.656 132.882C239.656 132.882 240.259 135.086 242.073 136.425C243.955 137.815 247.64 136.168 247.64 136.168C247.64 136.168 249.33 137.913 251.727 137.946C255.827 138.001 259.218 132.737 261.409 129.412C263.599 126.088 266.697 114.605 267.508 112.477L246.29 98.2383C246.29 98.2383 232.229 110.353 230.209 114.629C228.508 118.23 226.535 126.018 228.417 128.492Z" fill="#F7A9A0"/>
<path d="M232.551 129.349C233.441 125.087 235.544 121.319 237.428 117.439C237.47 117.352 237.605 117.42 237.562 117.505C235.642 121.342 234.51 125.51 232.747 129.415C232.699 129.524 232.527 129.465 232.551 129.349Z" fill="#263238"/>
<path d="M239.429 132.627C239.659 131.668 240.205 130.789 240.676 129.932C241.182 129.01 241.704 128.097 242.241 127.192C243.315 125.381 244.43 123.593 245.598 121.839C245.649 121.761 245.781 121.821 245.731 121.906C244.664 123.714 243.624 125.537 242.633 127.388C242.137 128.315 241.649 129.246 241.168 130.179C240.721 131.048 240.32 132.001 239.687 132.754C239.594 132.866 239.394 132.771 239.429 132.627Z" fill="#263238"/>
<path d="M247.688 136.088C247.855 135.248 248.494 134.441 248.94 133.723C249.447 132.908 249.948 132.089 250.447 131.269C251.442 129.628 252.435 127.985 253.372 126.31C253.419 126.226 253.552 126.293 253.506 126.376C252.562 128.084 251.643 129.803 250.684 131.502C250.214 132.337 249.738 133.168 249.259 133.997C248.85 134.702 248.421 135.629 247.769 136.143C247.732 136.171 247.679 136.131 247.688 136.088Z" fill="#263238"/>
<path d="M252.319 86.889L277.358 97.4302C277.358 97.4302 283.297 79.3688 281.11 73.5711C278.924 67.7735 261.147 51.6307 247.486 44.0708C233.823 36.5099 232.147 41.1666 241.551 53.9478C250.954 66.729 257.578 76.8653 257.415 77.2681C257.252 77.6709 252.319 86.889 252.319 86.889Z" fill="#C8A05C"/>
<path d="M256.313 82.1421C256.236 82.1046 256.292 81.9761 256.374 82.0039C263.652 84.5321 270.773 87.5884 277.729 90.8932C277.806 90.9296 277.749 91.0593 277.668 91.0303C270.422 88.425 263.236 85.5241 256.313 82.1421Z" fill="#263238"/>
<path d="M252.318 86.8935C253.253 85.3359 254.154 83.759 255.056 82.1832L257.715 77.4311L257.812 77.2565L257.697 77.0829L253.976 71.5006C252.741 69.6355 251.448 67.8112 250.187 65.9643C248.93 64.1153 247.629 62.2963 246.33 60.4763C245.04 58.6508 243.71 56.8533 242.367 55.0664C243.532 56.9807 244.711 58.8844 245.928 60.7591C247.136 62.6413 248.344 64.5224 249.595 66.3746C250.842 68.229 252.057 70.1047 253.329 71.9419L257.132 77.4621L257.114 77.114L254.677 81.9829C253.878 83.6133 253.081 85.2448 252.318 86.8935Z" fill="#263238"/>
<path d="M245.945 60.4544C245.469 59.7495 244.893 59.1603 244.3 58.5894C243.695 58.0291 243.069 57.5074 242.364 57.0371C242.555 57.4206 242.814 57.7538 243.079 58.0752C243.341 58.4008 243.636 58.6922 243.933 58.9804C244.546 59.5385 245.191 60.0613 245.945 60.4544Z" fill="#263238"/>
<path d="M235.131 40.5904C235.028 41.531 231.385 48.0003 227.18 48.3142C225.81 48.4138 224.932 40.9621 224.932 40.9621L224.742 40.4265L222.081 32.932L230.424 26.0234L231.638 25.0957C231.638 25.0957 232.231 27.1943 232.943 29.8146C232.976 29.9367 233.011 30.0578 233.045 30.1874C233.089 30.3352 233.133 30.4734 233.167 30.6127C233.279 31.0026 233.39 31.4011 233.494 31.8018C233.573 32.1049 233.652 32.4006 233.725 32.722C233.807 33.0434 233.877 33.3562 233.959 33.6776C234.687 36.8613 235.168 40.1919 235.131 40.5904Z" fill="#F7A9A0"/>
<path d="M232.945 29.8174C231.485 36.2182 226.891 39.3141 224.744 40.4304L222.083 32.9359L230.426 26.0273L231.641 25.0996C231.641 25.0975 232.233 27.1961 232.945 29.8174Z" fill="#263238"/>
<path d="M210.502 19.6534C208.351 33.4448 216.368 36.2911 219.343 36.7507C222.044 37.1685 231.29 38.2494 234.855 24.7536C238.419 11.2579 232.687 5.89842 226.562 4.61505C220.438 3.33275 212.653 5.86199 210.502 19.6534Z" fill="#F7A9A0"/>
<path d="M213.646 16.1601C213.975 16.1729 214.281 16.1301 214.609 16.1097C214.978 16.0861 215.274 16.1054 215.58 15.8708C215.744 15.7444 215.781 15.4423 215.674 15.272C215.424 14.8735 214.964 14.7899 214.519 14.7995C214.036 14.8103 213.665 14.942 213.298 15.2559C212.942 15.5601 213.211 16.1429 213.646 16.1601Z" fill="#263238"/>
<path d="M222.54 18.8517C222.21 18.8582 221.905 18.81 221.578 18.7832C221.209 18.7521 220.913 18.766 220.611 18.5261C220.449 18.3975 220.419 18.0944 220.529 17.9251C220.786 17.5309 221.247 17.457 221.693 17.4752C222.176 17.4955 222.543 17.6348 222.904 17.9551C223.254 18.2647 222.975 18.8432 222.54 18.8517Z" fill="#263238"/>
<path d="M220.026 21.6169C220.04 21.5826 220.092 21.6747 220.083 21.7122C219.884 22.6421 219.813 23.7401 220.604 24.204C220.629 24.2179 220.617 24.265 220.587 24.2543C219.58 23.9222 219.689 22.4653 220.026 21.6169Z" fill="#263238"/>
<path d="M221.039 20.7913C222.563 20.9488 222.137 23.9869 220.724 23.8412C219.333 23.6966 219.761 20.6585 221.039 20.7913Z" fill="#263238"/>
<path d="M221.619 21.0369C221.86 21.2458 222.077 21.5864 222.392 21.6625C222.758 21.7514 223.081 21.4729 223.366 21.2008C223.396 21.1729 223.419 21.2029 223.413 21.2426C223.34 21.8264 223.032 22.392 222.396 22.391C221.815 22.3899 221.479 21.8168 221.416 21.2115C221.406 21.099 221.522 20.9523 221.619 21.0369Z" fill="#263238"/>
<path d="M214.892 20.5628C214.889 20.5264 214.812 20.5971 214.808 20.6368C214.713 21.5827 214.444 22.6507 213.55 22.85C213.523 22.8564 213.519 22.9035 213.551 22.9035C214.611 22.896 214.953 21.4745 214.892 20.5628Z" fill="#263238"/>
<path d="M214.184 19.4704C212.683 19.1544 212.162 22.1775 213.551 22.4699C214.919 22.7581 215.441 19.735 214.184 19.4704Z" fill="#263238"/>
<path d="M213.515 19.5604C213.249 19.6793 212.962 19.93 212.673 19.8989C212.339 19.8636 212.151 19.494 211.994 19.1437C211.978 19.1073 211.949 19.1287 211.942 19.1683C211.826 19.7436 211.913 20.3778 212.449 20.5856C212.938 20.7742 213.395 20.3424 213.633 19.7907C213.677 19.689 213.623 19.5122 213.515 19.5604Z" fill="#263238"/>
<path d="M218.94 29.0528C218.693 29.2532 218.438 29.5371 218.092 29.5328C217.76 29.5296 217.388 29.3442 217.098 29.1985C217.069 29.1835 217.035 29.2125 217.052 29.2425C217.263 29.6292 217.759 29.9056 218.204 29.8702C218.639 29.8359 218.887 29.4856 219.028 29.1043C219.047 29.0507 218.977 29.0239 218.94 29.0528Z" fill="#263238"/>
<path d="M215.538 25.0565C215.538 25.0565 215.13 26.4299 215.03 27.0919C215.021 27.154 215.176 27.2076 215.399 27.2547C215.409 27.2601 215.415 27.2644 215.425 27.259C216.566 27.62 217.804 27.3961 218.66 26.5498C218.716 26.492 218.642 26.4117 218.575 26.4427C217.605 26.9505 216.615 26.9687 215.576 26.8273C215.558 26.6366 216.354 24.4984 216.25 24.4748C215.893 24.388 215.142 24.5262 214.694 24.5862C215.461 21.7003 216.685 18.961 217.406 16.0761C217.429 15.9733 217.285 15.9187 217.24 16.0076C215.754 18.7875 214.798 22.0891 213.929 25.049C213.818 25.4175 215.257 25.1283 215.538 25.0565Z" fill="#263238"/>
<path d="M234.85 25.8296C232.47 25.7449 232.488 20.7357 232.488 20.7357C232.488 20.7357 227.691 20.2076 226.888 13.1319C226.888 13.1319 226.629 16.3532 228.366 19.0742C228.366 19.0742 220.012 17.2209 217.251 9.74247C217.251 9.74247 218.264 13.5079 219.451 14.9402C219.451 14.9402 216.016 13.5497 214.613 10.4741C214.613 10.4741 212.671 14.3907 211.403 15.3901C211.403 15.3901 213.426 0.63463 226.955 3.75842C226.955 3.75842 235.472 5.29889 237.786 12.441C240.099 19.5841 234.85 25.8296 234.85 25.8296Z" fill="#263238"/>
<path d="M232.062 25.2554C232.062 25.2554 235.196 20.9607 237.151 22.0866C239.106 23.2125 236.688 29.4804 234.35 30.2978C232.013 31.1152 231.214 28.9651 231.214 28.9651L232.062 25.2554Z" fill="#F7A9A0"/>
<path d="M236.413 23.8653C236.451 23.8632 236.457 23.9156 236.424 23.9274C234.784 24.5541 233.897 26.0453 233.265 27.5976C233.761 27.0052 234.426 26.6881 235.221 27.2805C235.263 27.3115 235.221 27.3769 235.175 27.3662C234.512 27.2098 234.027 27.3158 233.567 27.8407C233.24 28.2125 233.013 28.686 232.776 29.1177C232.697 29.2612 232.435 29.1787 232.494 29.0116C232.499 28.9998 232.504 28.987 232.508 28.9741C232.51 26.9002 234.182 24.0292 236.413 23.8653Z" fill="#263238"/>
<path d="M224.94 41.1016L228.095 46.9656L234.854 38.3398L237.297 40.5906C237.297 40.5906 231.216 53.7724 231.107 53.2207L227.982 48.2115L224.742 52.3037L224.001 43.0245L224.94 41.1016Z" fill="white"/>
<path d="M224.122 47.7353C224.051 46.1991 223.936 44.6544 223.936 43.116C223.936 43.0614 224.018 43.0282 224.038 43.0903C224.508 44.529 224.748 50.4049 224.912 51.8018C224.917 51.7965 224.922 51.79 224.926 51.7836C225.061 51.6068 227.949 48.1638 227.987 48.2088C228.63 48.9876 230.92 52.6342 231.086 52.9706C232.047 50.8773 235.772 43.2414 236.961 41.2306C236.995 41.1728 237.083 41.2071 237.058 41.2735C236.247 43.461 231.337 53.7322 231.242 53.7162C231.186 53.7719 228.345 49.2822 227.967 48.4166C227.495 49.1494 224.621 52.992 224.584 52.767C224.339 51.2448 224.192 49.2736 224.122 47.7353Z" fill="#263238"/>
</svg>
